<mxfile host="app.diagrams.net" modified="2022-06-05T10:42:56.997Z" agent="5.0 (Windows NT 10.0; Win64; x64) AppleWebKit/537.36 (KHTML, like Gecko) Chrome/102.0.5005.63 Safari/537.36" etag="rZ6subFGxXadZGd-5_OS" version="18.0.6" type="github">
  <diagram id="2jA7EwcJPN4rYnbduw8A" name="Page-1">
    <mxGraphModel dx="1237" dy="613" grid="1" gridSize="10" guides="1" tooltips="1" connect="1" arrows="1" fold="1" page="1" pageScale="1" pageWidth="850" pageHeight="1100" math="0" shadow="0">
      <root>
        <mxCell id="0" />
        <mxCell id="1" parent="0" />
        <mxCell id="0zCmAKwxc2upnWdYMAy7-51" value="" style="shape=image;verticalLabelPosition=bottom;labelBackgroundColor=default;verticalAlign=top;aspect=fixed;imageAspect=0;image=data:image/png,iVBORw0KGgoAAAANSUhEUgAAAkIAAAFVCAYAAAADnIC+AAAAAXNSR0IArs4c6QAAAARnQU1BAACxjwv8YQUAAAAJcEhZcwAADsMAAA7DAcdvqGQAAHNBSURBVHhe7d0FmNRWFwbgD3co7u7u7sUdiru3lGLFCwX6o8W1LcXd3bW4u7su7u4wf06SgWGZ2Z3MJJkkc16efYZNBhZ2Z5IvJ+feG8ImAGOMMcaYHwopPzLGGGOM+R2uCDHGdHX72S0cvLEX5+6fFn//+v0rhAkVFrEjxUHKmKmRLWEupI+TUX42Y4xpi4MQY0xzdJiZdnACFh2fi/0Bu+WtEMNPhLAR8f7jO9x7cRcfP30Ut6eIkQpVM9VCw5zNkShaYnEbY4xpgYMQY0xTFIBGbBuI289vIWv8HKiQoSoKJSuGzPGyInyYCPKzJFQl2nttJ9adW41NF9aK234p0BE9SvRF2FBhxc8ZY0xNHIQYY5q49+IOOq78GeuFUFMkxfdoW7AziqUsKe8N3vkHZ/HP7lGYdXiKeMtsaMVxKJy8uLyXMcbUwUGIMaa6E7ePotnCOrj66DIGlx+NZnl+lvcot+3yZnRf0x4XH5zH2GqTUSdrQ3kPY4x5j4MQY0xV5+6fQY0ZZWETfk2qORf5khSU93ju6ZsnaLmoPrZc3Ii/qk1Fraz15T2MMeYdDkKMMdV8+PQBpScUQMDTa1jcaB2yxM8u7/EeBauaM8qLFaI1zbchd+L88h7GGPMczyPEGFNNj7W/4sSdo2LVRs0QREIIv8ZXn45E0ZKg25r28lbGGPMOByHGmCp2Xd2GqQf+FZuiS6cpL29VV6xIcTCw3AixB2nk9kHyVsYY8xzfGmOMqaL+nGo4eusgjvx6SfOh7s0W1MG2y5twqnMAwof+egg+Y4wpwRUhxpjXztw7hQ3nV6NFnl90me/nx7xt8OzNM8w6PFXewhhjnuEgxBjz2qrTS8THWtkaiI9ay5e0kNiDtFL+uowx5ikOQowxr227/J84iith1ETyFu2VTF0Wu69ux4t3z+UtjDGmHAchxpjXjtw8gFyJ8sqf6SN34nzi47Fbh8VHxhjzBAchxphXrj+5hncf3yF1rLTyFn2kjpVOfKTZqxljzFMchBhjXnn86qH4GCtSbPFRL/av9+i19PUZY8wTHIQYY175aPsoPoYKGVp81Eto+et9/PRBfGSMMU9wEGKMeSVS2Mji4/O3z8RHvTyTv17ksFHER8YY8wQHIcaYVxJETSg+Bjy5Kj7q5fpj6evF13GkGmPMejgIMca8EiVcVCSPkRLHbx+Vt+jj+O0j4mOGuJnER8YY8wQHIcaY1xKELoxtl7bIn+lj++X/kPi7pGIIY4wxT3EQYox5ZNl6oEknIFpG4MLeCnj29jFWn1km79XW49ePsOrMUpRNW0newhhjnuEgxBhzm2P4GTAOSJMc2CNkn1MzqiBRtCSYfmii/Ext0Sr3ZOvC+li4WvwtY4x5hFefZ4wFicLPsg3A0nVC8EkBVCsDVBU+MqSWnyB49gKoO3IU9n/siul1FqJ8uiryHvXdf3kPecakR9EU3yP/h4X4dzbw5i3wU32gVQMgnPZrvjLGLISDEGPsG+6EH7tRk4H+Y4EyRYBLKXPiU4jX2PbzQUQIE1F+hrpaL2mKhcdnY0Th/WhYIpu4beUmYPwsYNfBL4EoeWJxF2OMBYlvjTHGRK5uex1YCfRo820ImrcCyFxaCiEL/gZmjwF+SDQUVx5dRLvlLeVnqWvcrhFiCCoerS+atsyG3sOl7ZVKAqunAZvnAo+eACkKAY1+lYIRY4wFhStCjPkxJZUfu217paB04zbwezugnnwXbNBfQN/RQMMuY7D0Zmc0ytkCwysJCUklUw6MR7fV7VAzSz38/cM0nL0EdOwLPBSCz/DfgUK55ScKbt+TKkR02yxTWqlKVLOCvJMxxhxwEGLMz3gSfsj5K0D/MVIFiAJQJ7no8+o10LIbcOEqMGkwkCU9MGxbfwze0hcV0lfFyMrjET1CDOnJHhr0Xx+M2D4IFYW/b2rtBfJWyegpwr+lP9DjFyGIdZI3OqAwxH1EjDFXOAgx5gc8DT+EGqEHjAWGjJfCD4Wg76JK+/YfBVoIISh3VikEhQghbSeT9/+D7mvaI16UBPi9ZH/UziokEIX2XtuJQVv+wO6r29E0908YUkH4hzgRVHXIjvuIGGPOcBBizKK8CT92jo3QFIDSp5J3CCbPF0JQV2BEL+DXFvLGQA4E7MUfG7tj//XdyJYgJ+rnaIrKGaojRsSY8jOcW3N2BeYdnYG1wmPcKPHwe4kBqJOtobzXteCqQ+TQCSkQTZoHNPxBCkUFc8k7GWN+h4MQYxaiRvgh1AhNfUBxhLzSsy3wfQF5h+zXvtLXmDQEKFlI3hgECjWT9v+NY7cOi5/nSJgbGeJmRsJoiRAxTCS8+/gO917cwbn7Z4TwtAev379G3Mjx0CT3j2hTsBPCh44g/jl3uFMdItxHxBgjHIQYMzm1wg9x1Qhtd/WGVAUKH04KQfFiyzvcdPDGPmy6sE6sEJ29d0qcE8guSrgoSBUrLXImzINiKUuhTFrvUok71SE77iNizH9xEGLMhNQMP8RVI7SjVZulENS0FjCom7zRS+8/vsfr968QNnRYRVUfd7lbHbLjPiLG/A8HIcZMQu3wQ4JqhHZkHxpPVaD6VeWNJqKkOkS4j4gx/8FBiDED0yL82AXVCG3nbGi8WSmtDhHuI2LM+jgIMWYwWoYfElwjtF1QQ+PNTGl1yI77iBizJg5CjBmA1uGHBNcI7cidofFm5kl1yI77iBizFg5CjPmIHuGHuNMI7Ujp0Hgz87Q6RLiPiDFr4CDEmI70Cj/E3UZoO2+HxpuVN9Uhwn1EjJkbByHGNKZn+LFzpxHakRZD483Gm+qQHfcRMWY+HIQY04Avwg9xtxHakdmHxqvJ2+qQHfcRMWYeHIQYU4mvwg9R0ghtR0PjqQp08Zo0KszMQ+PVpkZ1iHAfEWPGx0GIMS/4MvwQpY3QdlYdGq8mtapDhPuIGDMuDkKMKeTr8EOUNkI7svrQeLWpVR2y4z4ixoyFgxBjbjBC+LFT2gjtyJ+GxqtJzeqQHfcRMWYMHIQYc8FI4Yd40ght569D49WmdnWIcB8RY77FQYgxB0YLP8STRmhHVHmg9cL8eWi8mrSoDhHuI2LMNzgIMb9nxPBDPG2EdsRD47WjRXXIjvuIGNMPByHml4wafog3jdB2PDReH1pVh+y4j4gx7YWUHxmzPAo/TYQr92gZpVtNaZIDe5YBB1YKV/VtjBGCqBE6RSHpNtjpzcAw4eSqNATR0Ph8VYHw4YF9yzkEaSldSmDNdOl2ZbHaQO/h8g6VVCoJrJ4GbJ4LPBLCFr02Gv0qBSPGmDq4IsQszciVH0feNEI74qHxvqN1dYhwHxFj6uMgxCzHLOGHeNsI7YiHxhuDlr1DjriPiDF1cBBilmCm8EPOX5bmAvKmEdqOh8Ybjx7VITvuI2LMO9wjxEzLDD0/gVEjdLdBQNri0m2wK7u8C0F0EsxXRVoqY9VUDkFGoXXvkCPuI2LMO1wRYqZitsqPI29mhHaGh8abg57VIcJ9RIwpw0GIGZ6Zww9RqxHajofGm5NevUOOuI+IseBxEGKGZPbwQ9RshLazrxqfKwsweYjwBuZV401F7+qQHfcRMeYaByFmGFYIP0TNRmhHPDTeOnxRHSK8rhlj3+IgxHzKKuGHqDEjtCs8NN56fFUdItxHxNgXHISY7qwUfuzUboS246Hx1uer6pAdhSEKRW/fcR8R808chJgurBh+iNqN0I7o1pqVV40PeHIdd57fwuv3rxA2VFjEihwHKWKkQsgQ/jerhy+rQ3bcR8T8FQchphmrhh+iRSO0IysOjX/65gmWnJiPjRfWYt+1XXj29qm85wsKQTkT5kHxVKVQJVNNpImVTt7jH3xdHSLcR8T8DQchpiorhx+iVSO0nRWHxj98dR8jtw/G5P1/48OnD0gTOx0KJC2CjPGyIGG0xIgUJhLefXyHuy9u49y9M9gfsBv7ru8W/2zF9FXRpmBn5EyUR/zcHxihOkS4j4j5Cw5CzGtWDz/k+UshAI3RphHazopD42cdnoI+67uJ1Z/6OZqiYY7mboWagCfXMPfoDPy7dwyevXkqhKFO6FNqkLzXPxihOmTHfUTMyjgIMY/4Q/ix06oR2pEVh8b/tqYDJu3/G8VSlkSvkgOQJX52eY/7KAQN+K83puz/B4WSF8O/1WcgTuR48l7rM0p1yI77iJgVcRBibvOn8EO0bIR2ZMWh8b8sbYoFx2ajQ+Fu6Fmin7zVc4uOz8XPSxojQ9xMmFt/JRJETSjv8Q9Gqg4R7iNiVsJBiAXJ38IP0boR2s6qQ+N7rO2IifvGibey6JaWWrZe2oQ6syuJzdSrm2+Tt/oPo1WHCPcRMSvgIMS+4Y/hh2jdCO3IqkPj5x2dgbbLWqBdoS7i7TC1rTy9FM0W1EbjXC0xrOJf8lb/YrTqkB33ETGz4iDERP4afogejdCOrLpqPA2PzzMmPTLGzYIljYUXlEYGbu6NkTv+xJx6y1AqTXl5q38xYnXIjvuImNlwEPJj/hx+7PRohLaz+qrxfTf2wNhdw7C+5S7kSKjtmTnf2EyIETEG1jTfLm/xT0atDhHuI2Jm4X9TuPo5Cj9NhANmtIxSH0ya5MCeZcCBlcLBtI3/hCBqhM5cWrp6XfA3MHuMtiGIhsbnqwqEDw/sW269EPTmw2txhFitrPU1D0HklwK/4kDAXvx3UbvKkxm0bwac3AgcPA7krQLsPCDvMICcmYGJQuC/JfybqCJU/SegZD1g4Wr5CYwZBFeE/ABXfr7QqxHakT+sGj/nyDS0X/4jVjTdjPxJC8tbtZV6cFyUTlMef1WbKm/xb0auDtlxHxEzIg5CFsXh52t6NkI7oqHxS9YKYWiotVeNbzq/No7fPoJDHc7LW7TXfnlLrD27Eue73ZG3MCP3DjniPiJmJHxrzEL4tte3qBG62yAgbXFpPqAru/QJQTQ0nm4DXLgC7Fth7RBEDgTsQYFk+lSC7AomK4rHrx/h1J3j8haWLiWwZrpU6SxWG+g9XN5hMJVKAqunAZvnAo+E0JZCeH80+lUKRozpjYOQyXH4cY0aoZMXlG6Dnd4MDBOukLUcDWZHV7v5hBNR7qzAqqnWmR/IlUevHuDuizvIEDezvEUfNDqNnH9wVnxkXxi5d8gR9xExI+AgZEIcfoKmdyO0IxoaX6s1MLyXteYHCgqFIJIgaiLxUS8Joklf7+5zIemyb5ilOkTixwH+1xG4c0iakHGgcFzLUELqe6J+Isa0xEHIJDj8BI8aoUs3kObo+e0Xqeyu1bIYgdHQ+HptgaXCz4lGhVlpfqDgvHr3SnyMGCai+KiXiGEiiY80Yo25ZpbqkB31DB1ZCwz+DdiwHYibQ7q9fSVAfgJjKuMgZGAcftxDjdDUX1C1JVCmqHQbTI/RYHZWHxoflBcvgVu3pWE/bz++FR/18vbjG/ExTCgedhQcM1WH7LiPiOmFg5DBcPhxn68aoR3R0Hi6ym5aE5gyFAgRQt5hARRyaBTSpp3AtIXSqLtWPYCKTYGsZYGYWYEoGYCWHeKKz9f7FtUd+evFjiR9fRY8s1WHCPcRMa3x8HkDoPDDQ92V0XNGaFfMPDSeQs6NO1Ijufjh8PsA+ZGuwuPGAhLFlz/iAYkTfPm9fTvNA5PqzziolqkWhlYU0rtOVpxejOYL6qJZ/J34IU8e5M0u72BuMcO8Q67wfERMTRyEfITDj2eoEZoqZVQB6tlWvx4gR0ZfNV7tkOOO2rMq4dbTG9jxyxF5i/Zolfup+yeg+MPn2HckBG4K/08KQ3mzAflySI8Jhf8Lc80s8w65wvMRMTVwENIRhx/P+WJGaGfowEshqFlt34wK80XICcrGHRAbxJecH4uPGTph688HPw9r11rOUWmQMV5mzKizWPycgtBeIYfto4+jwu8PS/9vCkT2gMRVI+fMXB0ivK4Z8wYHIY1x+PGOr2aEdkbrVeONFnJcsYcfem3TvEzVygJFi95G/TVJ8VO+tuhfVvtO3FVnlqHp/Fqok2Amxv4opFIXHEMRPXLVyDWzV4fI7XtSIKJbZ5nSSoGIhuMzFhQOQhrg8OM9aoTuPwYYMl4KPxSC9JgM0Rk1Vo03S8hxxVn4odd1LofiT/2pP2LDtWk43OECEn+XVN6qjYpTiuHqvfuIfeQUzglhmW6J0AfdMg0KV42CZ68O/dYa6NdZ3mhC3EfE3MVBSCUcftRjhEZoOxoa36KbdMKfPER4wzgZFWb2kOOKO+GH0P+Pfl7T151H5MqZUD1zXYyvPl3eqz5a5f63NR0wpupE1M3WGNv3SSe9Ocu/nPCyZZCf7AauGn3LCtUhO+4jYsHhIOQFDj/qMkIjtCP7qvHdhSvjEvJSHVYJOa64G37Ix49SAKKPlnWF0Cr8zBac/xMDNvfGn+VHo3men+VnqufQjf0oO6kQyqatiJl1l8hbJRevylUA4aN4fumEV764vFMBrhp9YZXqEOE+IuYKByGFOPyoz1eN0EFVcugESAHn06fgQw59HjaM/JeakGP4iR5Nej27Cj92FDjoZ0bPoQCUI5O8Q9Bkfk2sPrMck2rOQZWMNeSt3rv08AJqz6qIDx/fY22LnYgfVfjGO0G3MsU+kTlAlEhSIGpRR97pIX+uGlmpOkS4j4gFxkHIDRx+tKFlI/TLV18qNoFDTlCVnMjCiXPVZiBqZGBkbyC7cII3c8hxxZPwQ1ZslH5moUJKP7MK38s7HLz98AY1ZpbH3ms7MbLyeDTI0Uze47mDN/bip0WN8Pj1Q8xvsAq5E+eX9wSNqox0wlPSR+QOf6waWak6ZCdWELmPyO9xEHKBw492vG2E9jTkBFfJ8fXQeK15Gn7IgWNSADp2Wvp5BVdhefX+JZovqIdNF9aiWe5W6F1qECKFldYGU+rfvWPx+7pOSPRdEkyoMQu5E+WT97jP2z4id/hD1chq1SE77iPybxyEHHD40Z69EbpsUakPKHAjtFYhJzhaD433FW/CD6HvN/28pi6QAhDdBlOyjEi/TT0xZudQxI4cB78U6IhGOVsgSjj3Uu/SkwuEEDRG7Asqn64yhlQci7iRhR+uF9TqI3KHlatGVqwOEe4j8k9eB6GPnz7i+btnCCH8ihb+O3mreXD40Qfdoug3BogSGahRHogVXb+QExRxaHw36QTp6dB4o/E2/BBnjdAJPFzSa9/1XRi5YzA2X1iHUCFDoZwQagolK4qM8bIiUbTE4iry7z6+w90Xt3Hu3mnh+bux4fxqcS2xtLHTo13hrqiVRTgjqUiLPiJ3uKoa5aNgJIcjs1SNrFodItxH5F8UB6Grjy5j3bmV2HV1G07cOYabTwPkPXSlGALJoqdAlvjZUSh5MfEqLk5k472rOfyoz1Ul5/gZ4MQ54PUb6eRqpMZjd4bGm4Ua4ceODv6uGqG9ceDGXiw5Pg/rhZAT8OSavPVbUcNHRfGUpVElY01UylBN3qodrfqI3GGFqpFVq0N2YgWR+4gsze0gtPPKVkzYNxZrz64UP08dKy2yJsgpBJ/kiBY+OmzCr8evHuLyo4s4cvMgrj8RLrEFNbPUw88FOiBzPOEd7UMcfjznye2qyBGBMxelq8bG1YUD5Y/6hpzg2IfGj+gF/NpC3mgyaoYf4k4jtFquPb6C8/fPiFWf1+9fIUzosIgVMTZSxkyNDHEzy8/Slx59RO4wY9XIytUhO+4jsq5gg9DTN0/Qa30XzD0yHbEixUaTXD/hh8y1xSAUlOO3j2DR8bmYemA83nx4g9YFfsX/Sg+W9+qDw0/w1O7JMdKM0K50+J/0mjDjqvFqhx+itBHa6vTsI3KHmapGVq8OEe4jsp4ggxANf22zrLl49dapSA90KtoTYUIpu6R/+OoBhm7th8n7/0GOhLnx1w9TkSpmGnmv+jj8fKF343FwjdC+5rhqPIUg+n+bgRbhh9DPn35enjZCW52v+ojcYeSqkT9Uhwj3EVmHyyBEw14bzq0uDlkdU2US8if17tJ59ZllaLushTiEdna9ZWIfkVr8Mfz4anSVM0abEdoZsw2N1yr8EDUbof2FvY/o/JUvt0X06iNyhxGrRv5QHbLjPiJzcxqEDt3cj8pTvke6OBkxs+5iJIiaSN7jnWO3j6DBnGoIHSo0VjbdIo4Y8ZSVw4+RQk5QfDUjtFJmGRqvZfixowO2Fo3Q/sIofUTuMELVyF+qQ3bcR2RO3wQhGsb6/fjcePHuhRBW/lN9FelDN/ah4pTiKJisKBY1WitvdY8Vwo8nISex/KhnyAmKljNCq8kMQ+MDhx9a26tqaXXDD9GzEdofGK2PyB2+rBr5U3WIcB+RuXwThHqs7YiJ+8ZhQcPVKJ6ylLxVXdR43W55S/QpNQhtCnaStzpnpvBjhZATFDM0QtsZeWi8XuGHcCO0tozcR+QOPatG/lYdItxHZA5fBaFTd46j2PhcaJm3DQaWGyFv1UaT+bWw5dJGHP31EqJHiCFvldAJwn6iMEr4oZBDwSbglhxuLBZygmP0RmhHRhwar2f4IfR6pJ8XN0Lrx+h9RO4IrmpEASmP8Htv+Ft1yE6sIHIfkSF9FYR+XdEKc49Ox/GOVxEnsrbdk0dvHUKpCfnRvXgfcTSaL8OPv4ecoDg2QtMJlW4DGJmRhsbrHX4IN0L7npn6iNyhRdXIH6tDdtxHZDyfg9CbD6+RYmAs1MvRBMMq/iXu1Fqd2ZWx/8IFPFx4RrPwwyHHM2ZphLYzytB4X4QfOzr5ciO0cZixj8gdalaN/LU6RLiPyDg+B6EVpxaj+cK6WNxoHYqk0KeTcs6R6Wi/vCX+LbsbP+RT/gpQI+TQG5h+708hJyhmaYR25Ouh8b4MP4QboY3N7H1E7vCmauTP1SHCfUS+9zkIUZP0zMOTEdDzqbhDDzef3kC2kSnQr8xQtMrfXt4qCSrk2LdzyFGPmRqhHflqaLyvww/hRmjzsUIfkTs8qRr5c3XITqwgch+R7j4HoWrTS+PN+zdY22K7uEMvGYcmRawPpZH++UQOOT5ipkZoO18MjTdC+CH0PqGfFzdCm5fV+ojc4U7ViC7I/Lk6ZMd9RPr6HITyjEmPbAlyYUKNmeIOvZSZWBi3bkZGg7hrOeTozGyN0HZ6Do03Svgh3AhtPVbtI3IHBXoKRM6qRm/eCu+5DUCPX/y3OkS4j0gfn4NQhqGJUC5dZQyv9Le4Qy81Z5bH87fPsK7FTnkL05rZGqEd6TE03kjhx45OltwIbV3+0EfkDsdQtPOgVDWKFBGoVAKoXl4KSb5aQ82XuI9IW5+DUJYRyVA8ZWmMrjJB3KGXH6aXwZsPb7Gm+VZ5C9OKGRuhHWk5NN6I4YdwI7T/8Zc+InfQxVrvEcC0hVJ7xJ37X6pGrnqNrE6sIHIfkao+ByGaSDFR1MSYVW+puEMvBcdlx8nDKRH+6CLxdljg22OOn/MP2zNmbYS202povFHDD+FGaOaPfUSuOI4sa15bunXmyQg1K+E+IvV8DkJNF9TGmbsnsbftKXGHXhL0i4ymOX9B43SDgxwl9uCRdFXEYUkZMzZCO1J7aLyRww+h1zv9vLgRmtn5cx9RYM5GltF7xlWvkT9UjbiPyHufg9DonUPQf9PvON7pKuJHEV5FOjgQsAflJxfFhBqzUC1TLXmrc3QP3R6KOCwFz6yN0I7UGhpv9PBDuBGaBYf7iCTuzDvkzgg1q1WNuI/Ic5+D0JGbB1F6YgFxVunGufRpHhmwuRdG7RiMyh9uonbp2ChdRN7hIQ5L5m6Etnv9Bmje1buh8WYIP3Z04OJGaKYE9xEpm3eIjof+VDUSK4jcR+S2z0GIFP0nJ6KEi4pVzbbIW7SVfWQqJIyYGVmfLRVPWDR3kP2E5W0ocsWqYcnsjdB23gyNN1P4IdwIzbzl731E3sxK7Q9VI+4jcs9XQWjS/r/x25oOYsN0mTTa1tSmHfgXXVa3xcy6S1A2bUVx28HjX05keoQiV8wUlszeCO3Ik6HxZgs/hBuhmdr8vY9IjVmp6dhu1aoR9xEF7asgRPKPy4SIYSJh80/CpYZGnrx+jPxjs+DJzQzI8XS9eDLIn0PeKTNKKHJFrbBEjzQayhNmb4R2pGRovBnDD6HXBf28uBGaacWf+4i0WLPMalUj7iNy7psgtPL0EjRbUAe/FOiIP0r/KW9VV6vFjbH4xFysab4dm1bkE08OdStLJ4dkieQnOTB6KHJFq7BkhUZoO3eHxps1/BBuhGa+4K99RFquWUbHbatUjbiP6ItvghD5fV1n/Lt3DAaVG4kWeX+Rt6pj4H99MHL7ILw6NAh/NeqEJjWBew+Fk8QYYOw06SRB1Q1XVRKzhiJXlIQluuX1+Bnw4YP0/61YwnVYMoPghsabOfzY0cGGG6GZL/ljH5GeK9rbg5FZq0bcR+QiCBGqClF1qG+ZIfg5fwd5q3doeD4N02+RpzWKRRolNsXWqii9UMnxM9JV884DUhj6pZG03RWrhSJXqJekz0hg8y4p/GRK4zosOVaS1LwNpzZXQ+OtEH4IN0Izo/HHPiJfrGhPx2QzVo38uY/IZRAiPy1uiCUn5qNhzuboX2YYIoaNJO9R5tazG+i5tiNWnVmGlnnbYGC5EdL2u0DzLsDHT9IIIXqxkPXbpJPIy1fSSeQH4WQYHCuGIiWN0GJlSQ5HvupZcoezofFWCT+EG6GZ0flbH5Ge1SFXgqsa0aNRbpf7Yx9RkEGIDN7SF8O29Ue8KAnQoXA3NM/zs7wneC/fvcDEfX9hxPaBeP3+tRiAKAgF1nUgMGupVB1wvEKh9WXopJI2hXRSCdxQ7YoVQpEWjdC+DkuOQ+PrVBJ+PhusEX4Iff/o58WN0MxM/KmPyBfVIVfoeGGGqpFYQfSDPqJggxDZe20nhmzthx1XtiBGxJiomrEmiqcqhewJciFuFOGs6ODGk+s4eHMf/ruwHktPLsCbD29QMX1VdC3eB+njZJSf9a2ZS6TqEL1AuwXKWnQbhU4yQTVUu2K2UOTrRmitwpJ9aHyBnMCVAGuEH8KN0MwK/KWPyAjVIVfsgcgejoxUNbJ6H5FbQchuy6UNmHtkBtacXY63H96K2+h22Xfho8OGT3j86pEYfMh3EaILAaga6mVvjNyJ3TubHz0thaEMqaXqkGPyVNJQ7YqRQ5GZZoRWEpaiRhF+dg+k23zRhN8XyStV/UoU/DYsmQ2dOLgRWpnnb59h04V12B+wB+funcbt57fw6t1LhAsdDrEixUHKmKmRI2Fu8UIrWfQU8p9ievGXPiIjVYdcoWOp0apGvu4juvTwArZe2oSjtw6Kv7//4h7ef3ovTvmTIGpCpI2TAXkTF0DJNGXFbe5SFITsPn76iD3XduDU3eMIeHIdz94+RQjhF4WfpNGTI3O8rG6Hn8BoRBTdPjl6ShpOnTOzvEOmtKHaFaOEIqvMCO2Ien4WrgYWr5VCEwUgusUXIYLzsORYSdK7Z8kT3Ait3IGAvZh6YDwWHp8jfh4hTERkjJcZCaIkEi+m3n18i3sv7uL8/bPCo/DiEBROXlxc7qdKxhri50w//tBHZOTqkCtGqRrp3Ue0+MQ8zDg0Cbuvbhc/p1ad1LHSIk7kuAgTKqzYhnPz2Q2cvnNcLMaEDBEKtbLWR7PcrZA9YfBJzaMgpIfhE6XeIWqipiH2gXnSUO2KL0KRlWaEJoEbnunNsWkn8GM916vG+7pnSSluhFbu4cv7+N+mHph7ZLp4hVY/RxNUzPADCiQtLD/jW2fvnca6cysx/9hMXHxwHvmF5/Yq2d/jiyvmHav3EZmhOuQKHSd9XTUSK4ga9RHtvrYdAzb1EivIaWOnR+2sDVEmXUWkiZVOfsa3dl7ZKo54n31kGt4KoahRzhboU3oQooYTTkwuGDYIEQo7gYfYB+ZpQ7UreoQiq8wI7Wq0F21XY9V4YoSwRF+Hfl7cCK3M5gvr0GHFT7jz/DY6FO6O9oW6IHK4KPJe98w6PEUcsHHn+S1xglea6JX5hpX7iMxYHXLlc9VIDkh6VY3U7iMavWMw+m/uhUTRkqBb8d6ok03Z7R9awYKm6xm3azgSf5cUoyr/iyIpnJfvDR2ECA2xpybbDx+/HmIfmDcN1a6oHYqsMCN0UEPd1Vg13hP2sPQ5KKkUlrgR2nPzj81Cm6XNkDFuFgyv9DdyJsoj71Hu6Zsn6LqqLZacnC/OaUZzmzHfsXIfkZmrQ67QMdBV1ShfDulRzaqRGn1E3de0x+T9/6B21gYYUmGsx1P3kL3Xd6HTyp/F2+4TasxCtUy15D1fGD4I2bkaYu9IjYZqV7wJRWZqhHYmqPBj582q8XpQGpZobqtL14CkCYE6QrimK0Q9b8OZ2aozS9F0fm0US1kSU2vPR+SwyqpArvxvY3fh6m4E2hfqit9LCmcr5lNW7SOyUnXIFT2qRp72EfVa3wXj94zGr0W6o8f3wg9CBY9fP0KT+bXEHqPZ9ZaidKBF5U0ThEhQQ+wdqdVQ7Yq7ocjMjdDuhB87T1aNNyI6sM8QXmOjJkkVSBrqHymi67BkrySpeRvO7Oiqq+SEfMgULyuWNdmAsKHU/Ub0WPurODfZ2KqTFJfKmXas2EdkxeqQK3R807Jq5G4f0bSDE9BlVRtN1jp98fY5qk4rhWtPrmDTj3vFgV12pgpCJKgh9oGp2VDtirNQVLowsEd4IZmtEVpJ+LFTsmq8kbnbCK3VbTirqDmzAvYH7MaWnw4gRUxtmt+qzyiLIzcPYHebk4gXaB4z5ltW6yPyh+qQK1pUjYLqI7r2+Aryj8skVpLn1BNeQBo4c+8kvh+fByVTl8XMusJVr8x0QYgEN8Q+MLUbql2hUPTbYGDLHiBsGKCKECKa1lS30VptnoQf4u6q8UZH4YVeG2o2QvtrWFpwbDZ+WdoUwyr+JQ5718rpuydQ9J+c4mgQ6j9ixmO1PiJ/qg65QscutapGzvqI5lxvigXHZ2Nv21PifGJambB3LHqu64TJNeeicsbq4jZTBiG74IbYB6ZFQ7Vd4EZoumfuzu0zX/A0/NhRqg9q1Xgz8HUjtBXDEl1phQwZUiw7a+33dZ3x794xONDuLJLF4IkXjcpKfUT+XB1yxduqkb2PaPyKU/hULDvaF+6K30to3/9X+O9siBIuKtY0l+YlMnUQIu4MsXcUuKGaQos3cx640wit9ugzT3gbfuxcrRpvJnSlaoYZoc0Ulmj5nR+ml8GoKhNQP3sTeat2rjy6hDxj0qNT0Z7oXryPvJUZmVX6iLg65BodlzypGv2xoTv+2j0CxztdRfwowh/Q2JQD49FtdTshCG0T5yczfRAi7g6xd+RtQ7WnjdB6hiK1wg/x1dB4NVlxRmhPwxI9fg5MKoSlHms7ijNHX+nxCOFDh5e3aqvmzPK4+/w2trcWjrrMNKzQR8TVIfftpVAkByNXVaMq89IhXZyMmFl3sfyntEVTcqT6Mw7aFuyM3qUGWiMI2bkzxD4wpQ3Vas4IrUUoUjP82Bl9aHxw/H1GaD3CUtF/ciBB1ESYW1+47NcJXUHSlaReV5FMXVboI+LqkHJ0zLGHIgpJBy5eROQqGTC4whhxSQy9VJtWCq/ev8L6lrusFYSIu0PsA3OnoVrLGaG9CUVahB87Mw+Npzcc/bx4RujgUVgKsAcj+4ebYSl+vLfociIKOhftiW463qbafW0HqkwtIYSv5SiZupy8lZmN2fuIuDrkHVoOo9mCOtjQcrdb64KpheYl+3fvWNzq9RKgIGQ1R07ZbDnK22wN2ttsb97KG900cJzNFjGtzda8i812JUDaNm+FzZaplM32fR2b7b/d0jYtHThms/UYYrNlKGGzxctps/3c02Zbv03eKduwXdoeP5f0vJ5DpT+npvZ/2GxJ8tlsG3fIG0ziwweb7Y+RNlvoFNL36OYdeQfzystXNtvZSzbbpp0227SFNlv/MTZbqx42W8kfz9ti9Qljm3d0pvxMfdx6elP8ulP2j5e3MLObu9xmK1bLZkuQ22b73yib7e4DeYcJjJpss4VKbrP9LhyLmfv+2jVCfB8/fvVI3qKPaQcmiF/3xpMAm+UqQnZKh9g7cmyopjkOqJm6V3vfzAjtWCm6c1+4+o4jddrHi61u5ceRmYfGm6UR2kqO3DyI0hMLYFbdpSiTVsMlqAN5/f41kgyIhmwh+iNTCOEFyyyDqpAnzgLnLgOZ0wFZhI/YJmispmo+9UC9eQsUzgMkjCfvYC4ds/2Bk7ZBuPeH8E3T0fJTi9BiYT2xx9CyQchO6RB7Ym+EpvCRIqkQjB5oM0O1Oxxve1EwoaGI1BxOzctq9BQFZtah8VZshDYLexCiCcrKpq0ob9Xe6/evhCD0HfJH6I9c4TkIWREFC7oYpD4/uijNnRVI/WVCYMOi0VLrtwthKDfwfUF5I3Nq7+s/cODNQNz/4528RR/LTi1Ey4X1pcEWFISsbt1Wmy1RXputYz95gwvPXthsXQcKwTCJzdZJeO7jp9J2+vOFqtts2cvZbIvXStu05M5tL3dunylFtwXDp7bZZi2VN5jA/qM2W+XmNlvS/DbbxLnyRqaJgFs2257DNtvC1TbbiInS+6lWa5std52LYol5zpHp8jP1ceNpgPh1px74V97CrIpuyw6fYLOlKWaz5axgjvf6mYs2W7lGNlueyjbbjv3yRvaNv3ePFN/HD1/qex+UbqnT17317KZNuH62vjJFgX3LgTMXgNINpNEzgVEjdHIhudPQvtObgWG/fxkNRn9+xyKgXVOpulShibSEhpqo8tNa+JoJhCsIWrYixnfACuHfdGoT0L/zt7e/6PMBXaT9K6dITdK/9gXi55L+ng3SPFFuoepSvXZS5Ym+T2aYH4hK5616AIWqS9+LK7vM1WBpNPT9pBEci9YAIydJI2Fq/wIU/AFImh8IJVyFpy8BNBNeixPmACfOAZEiACWE90yvlknFv+PKw4vio14uPxTe0IKYYZOJj8y6IgqvtY4tgXNbgM4/ArOXAgnzSHOaUSuDEaVLCayZLrVUFKstvE+GyTvYV2KElUp8lx/pe/y4Iny9cKHDiyNOLX9rLLDAQ+znr5RuqdBoGLqlQsM4g6PWDNVajPZSOvqMhsbT/EBUcjbD0HhfzwhtRvZRX/QoDqF3HA0m76MTTWL7aDCHEWH0Yd9Or1FXaFbpmJFiYWFDIUnpZPTOIei/6Xc8mheAjEnjfp6XhCZto9WumbWZaT4iHln2Bc3h5zh8/uztq4heIw0GlB2OH/MJB3SdVJxSHDbbJ6xuvs3/ghChIfZ0ZZs8CRA6lBRmlDZCezpDtZZD3QMLLhSZbWg8N0J/S4+QE5zdh4Aeq7vi1KdRuPzbA3Hqej1UmVZSXFF6RcN9n2extR9g373/esI2ejTDwsdMOTPNR+Rv8w7RecfxvUmPdDxyfF/ShUuJSVmQJHpSzKu/Uv6T2rr/8h4yDE2EX4v8hh7f/8//gpBjI3TUKNIbJ7hV7IPizgzVeoYfVwKHojixgDv3gNlCmDP6qvH+2ghthJDjCoWfpeuED+H1RCM0C5XdjfWfimFIhbFomvsn+VnaOXvvtLheEB3E6GAWGI02ss9mSwffwyel0UdcNbIus8xHZOXqUOBqz6nz0nnO8aIklZM72b3W9Mb4/X/iYPtzSBpd+274f/aMRu/1XbDpp73IGj+H/wQhZzNCR44ovFE8HGIfWOAZqh0XXfVV+HGGhsbXEq5GHj8FQoYAnr0I/vaZr1h5RmgjhxxXAocf++umaD5pf7lJhfHi3XPsaC0cCTXWZVUbTDs4we1Zpel96XhlylUjaxPXNRMCEV34GnVdM7NXh4Kq9jiuLRYhiBV3KChRNW/C8ouIUjUDWuVvh35ltG+monUKE0ZLjKWNN4if+0UQCm5GaE+G2DtDlZ8//wa27ZN++NXLAW0a+z782DkbGq+0p0gPFATo52XWGaHtQYYezRJyXAku/DhacWoxmi+sKxzIhgoHtPbyVvUdurEPZYXQRf0E1FfgKa4aWZ/R+4jMVB3ytNrjDJ0r6edC5yT6mdDPZvLZ1phxaBK2tDqITPG0O2mO3jEY/Tf3wux6S1E6jTTvmaWDkJJGaKWr2Nu5uu1F2+lre9tQrRZ3Vo33dSgyQyO0lUKOK0rCT2CN59XA2rMr8V+r/cLBLKu8VV1Uebr+5Cp2tzmBaOG/k7d6j6tG1mX0PiKjVYfUqPY4M2OxdPuSJgW2ByD7++mPf+7gn1uZkT9lNixrslHaqDL7RVS1TLUwoYbwD5FZMght2ys11dKJiUKIu43Q7q5i727Pj6cN1WrydNV4vUMRHaR83QhtDzL0aNWQ44o34cfRjacBKDUhH+JGjieWnaNHVPd+RPvlLTHnyHRMrjkXlTNWl7dqh6tG1mLkPiJfVofUrPYERm0YYggVvu800zZ9zxv+IO8U0Nfu2A94+w6o0Hg2hh9qiia5f8LQCsIVsYruPL+FatNLixOxbmy5B7Ejf7nKtlQQsjdCU7mNQgf1AnnC2Sr27oYfZ9xpqNaCWkPjtQxFejVC+3PIcUWt8BPYlosbUGtWReRKlBdTa89HPJVWhu+86hdMPzgRPUv0RYfC3eWt+uKqkXUYtY9I6+qQVtWewOz9PxSAqgjHFfr+0rxjjob+K51v+3YCegnHfzJ4S18M29YfLfO2wcByI6SNXqIKctP5tXHizlHxAq1gsqLyHoklgpCzRmhvD0T2IfYUIqjBWGn4cSZwQ/UPwt+nFa2GxqsVitRshOaQ4z6twk9gq88sR9MFtZA4WlIMr/QXiqUsJe9RLuDJNXRd3RabLqxD12K90EX4MBKuGpmbEfuI1KwOaVntccZZ/0+G1PJOmWMViP5/eYT3iKMBm3th1I7BKJeuMoZUGOPVxdSG82vQaWVrPH79CNOEC7OSqcvJe74wfRAKrhFaKcfKDyViKqVmzyhsm6jeba1pC6V/c9oUUgjILyRwNdHM1HSyo5FwWg6N9yQUUTCh/7u7jdD2IEOPHHI8o1f4CWz/9d3osKIVLjw4i2a5W6FdoS7iSA0l/to9UrhC/B/efHiN4RX/RsOczeU9xsVVI3MyYh+R0uqQXtUeZ4Lq/3HkrArkzOT9/6D7mvaIGj6acAHUGz8pnGzx2uMr4qSrMw9NRsZ4WTCq8r/IliCnvPdrpg1CnswI7UpQt73oxKHWEPvA1Jqh2s6Xq8YHF4qcNUJ/+vQl2HDIUZevwk9g7z+9R9+NPTB+z2jx85pZ66Ni+moonLyYy4kX917fhXVnV2L+sZl48PK+uJBrzxL9kS6OQacNdgNXjczDaH1EQVWH9K72BBZc/4+j4KpAzpy8cwwDNvfGpgtrxapQLeH4UUY4HuRJ7PyE//TNE+y4vAUrzyzBkhPzxW1tC3ZG71JC8gqCR0Ho0asH2H1tJ07dOY6AJ1fx7O1ThBB+fRchBpJGT4bM8bKhYPKiiBhGeBWpzNNG6MCU9vyoNcQ+MLUaqp0NjfcVCkUzlgCrhH8TvVFiRpca0Wn9tFjC72lbcCGHfk/N6hxy3GeU8OPMhQfnMOXAeCw6PgdPXj8Wt6WMmRoJoiZCxLCR8O7jW9x7cRfn75/F+4/SKtQVM1RDo5wtUNyL22pGxVUjczBSHxFdOP8+DCiYSzp26lntCcyd/h9H7laBXNl8cR1mHJyENWeFH4iA1ghLEzsdYkeKgzChwuLluxe49ewGLsvrHcaMGEu86KJKdPIYKcVtQVEUhJaeXIC5R2ZgyyVpEiJCpW4awkp/zZPXj3D7uXBpL6MDWb1sjVEqTXl5i+fUaIT2puGZ0EKm1HysdIi9O7xpqHZnaLya7NUaegyqkkMH8SfPpMpPmDCATXgsnAeoVFL6HnLI8Z6Rw48rWy5txIGAPTh3/wxuP7sljuIIKxzMYgkHtVSx0iBHwtwomrIEvgsvpGY/wlUj4/JFH5Gzag/9/J+/AEKHFs4XnYE6leUn68Sd/h9HnlSBgkJFmK2XNuPIrYO49PACHr68L1xEvRMvpmhiVaoa50lcAEVSKBt141YQWn9uFYZs7Yfjt48gRcxUqJqxpniVll04YIULHU5+loTW/jl4Y5+Q4NaLwenu89sonLw4uhfvgzxJCsjPcp+3jdDehp/A3B1i7yklDdWeDo0PirshJ6hKzgPhgp/ubQduhNZy9Jk/MWP4Ycpx1ch4tOojUtrbo/e8Q+72/zjytgqkp2CDUM91nTBh71ikiZVOXNOnRpa68h73TD0wHsO3DxID0W/f/4GORXrIe4LnaSO02uHHGfoBBx5ir6bgGqo9GRqvRsgJ6nYV/R30b3anEZpDkTIcfhjhqpExeNtHpEZvj9bzDinp/3GkdhVIDy6DEJWbmsyvhY3n1+CXAr/ij9KD5T3KUZWox9qOmHt0Oupmb4wxVSbKe5zzpBFaj/ATGA2xp+oQJfKureSNKnPWUO1saLw9yNCjFiEnKN7OCM2hyDkOPyw4XDXyveD6iJRWe5RSuzqktP/HkZmqQI5cBiGaEI0mRhtZeTwa5Ggmb/UOzQtA8wPUydYQY6tOlrd+obQR2hfhJ7Cjp4HmXaT7pN6sYh8U+hoDhe/LwtVAkoRCUhfeWDkyA++FA57WISc49IZRc0Zofw9FHH6Yt7hq5BuOfURF8kqDQy5c0WcklxrVIaX9P47MWAVy5DQI/bqiFWYdniKElUlCaFF3GuQxO4eg36bf0bno7+hWvLe4TUkjtBHCT2B0wvJ0iL09yNgrNwHy4+cPOeTEiw3cfyhd7YUMCVQuBTSopm3ICYoeM0L7Syji8MO0xFUj7Tir9oQNA0QTvpfXb0rnpS6tpPezHjypDnnS/+PIrFUgR98EofnHZqHN0mbi7K00i6sWOq78WZzkaFbt9fhvWfFgG6GNGH6cCTzE3h5k7KHGVcgJqpJDj7sOSrfC7EPj9ZyhOjA1Z4RWwmqhiMMP8yWuGnlGSW+Pr+Yjcqc65Gn/jyOzV4EcfRWEPn76iByjUiPxd0mxqtkWeav6aM6QfGMy48bVeCiN7U4boY0efuxBxh5q7CHn5DnpIENDxiNFDD7kUPk0KEENjdd6hmpH9H+jr+XujNBaMmso4vDDjIqrRt9yVu3xtLfHF/MROasOedP/48gKVSBHXwWhv3aPwB8bumNxo3WKx+ErNe/oDLRd1gKTas5BlYw1xG1GCT+uQs7nj2AqOdQn9OffUlDwdIi9kqHxas9Q7cjbRmitGT0UcfhhZuVvVSM1RnIFR+/5iOzVocsBUnvFHuF4RF9TSf+PIytVgRx9FYTyj8uMBFETCEFIOGrrIN/YjIiEpEh7d41u4cceZOyhxtPbVcFVcoinQ+w9GRpPM1QPEMLKmKlSWKFA5G3jNr1h1WyE1ppRQhGHH2ZFVqoaqVnt8YRe65rZ+38o1NLkth1bAEN7yjsVsloVyNHnIEQzvZafXFQc2k5D3PUwdGs/caLGBpGuon6ZBF6HH3uQsYcaLUOOu5QOsfd21XhK7FS98WSGajs9GqG1pnco4vDD/JFZqkZ6VHs8oUUfkav+H09Hllm1CuTocxAasX0gBv33B850uYlYkWKLO7VG02SXnlAAf/8wDTWz1JO3OmcPMvZQY4SQ4y53h9iruWq8Jw3VvmqE1ppWoYjDD2NfM0LVyNfVHk9520fkbv+PkpFlVq4COfochBrPq4GLDy9g1y/C2VBHSQZEww/pW6JO8mHBhhwKM9RvY6SQ4y46UboaYq/lqvHuNFTT95ieY4RGaK15G4o4/DCmjNZVI6NWezyltI/Ik/l/gqsO+UMVyNHnIFTknxxIFj05ZtRZLO7QS+G/cuH0sSSIc3GJaUOOEoGH2NOL13FovFacNVQbvRFaa+6GIg4/jKnHm6qRWas9ngiuj8jb+X+Is+qQv1SBHH0OQpmHJ0WJ1GUxqrLwXdDRD9PL4M2HN1jTfJu8xfrsq9hTGKGTsbOh8VpwbKimN9Txs1JDds82yiaBtKLAoSh/TqlH6sgpDj+Mac1V1ShNcmkakhcvpeeYvdrjCcc+oohCwEuRBDh0wvP5fwKzV4foTgzdlaAPf6gCORIO9ZJPtk8IFSKU/Jl+QoUMJXztj/Jn/qFwHunNfEIIItkzAkWEz/VA95vpnjGVoemAQ28w+tzfQxChnwc1hVNADB0a+G+X8LFbajwsL2wvV4xDEGNaoVv3FUt8+aAeycvXpYtG+8f1W0CZIl8/z+ohiFDFq0xR6f9+4hyw44AQDF/J24QPb6VLCRQvIM2BRwG0mHCc86cQRD4Hochho+DZW+Gor7Onr5/i6pWo6DYIGDtNuiqnpl0q91kRDY3PU1maKuCxkOrp3mzeKsAa7eavFNH3tEoLoF0foH0z4IHw75gzRmrQy1EeWLJOfqKfodteXQYIB1ThIFOvLfBByOSzRgFPhAPCQ+F7tn6m9LP6Vbhiip8LaC1cKdFBmTHmHepDmThXag3IVAqImRXoPVyqyDauARxdCzw7LZwLDgLPheceWCm8R6tKle0eQ4T3pXABl6UM8GN3iKNt6URuNdT/U6OVdIymvs3jwvnx3mHheP0vcO4SEDcH0KqHNCDHE/QzKFlPGim8bzlwapNUbaJzEo089hefb41Vn14WL96/wPoWO8Udekk3JBGShqqAnB///ao5mh7ploRjr9DnHiKH3qH4ceS/yARcDY3XchV7dxqh9Zyh2gg87fnRavQZY1anRW+PlWfDdrf/h/qI7LfNlM5HFFQvkNor2hvd5yDUe31XTNr3F270eo6QIT4XijR17fEV5BqdFgPLjUDLvG3krV/cfwQE3JLDkUNAcvy9WcJScEPj1V7F3pNGaC1nqPY1tRueORQx5pqvRnKZZV4jZ7xZ/0vJfETujgjzdN4hM/ochNacXSEOoZ/XYCVKpCoj7tTa9IMT0XnVLxhZ5AAafJ9V3qqM0cOSkqHx9O/0dBV7RxOENwMFGjrwKG2E1mKGal/Ra7QXhyLmz7So9qjFWdXovXAsoH+PUapG7s7/466g5iPyZESYP1SHPgehj7aPSDEoFqpkqI4xVSeJO7VGI8ZOXruD9+uPIVQo4QQi5K+qwkfBXPITVOKrsOTp0PjAQ+zdpeaM0HTVQH+XNzNU+4Kvh7pzKGJWZ6/22MOF2UZyGaVq5Mn8P0o4zkdUo7w0KixMaM9GhFm9OvQ5CJHua9pj8v5/cLjDBXEFei3tu74LFacUR+9SA9G2YGfxh2Y/gWgZilxROywFtWq8O+xD7GtVlF54QdFyRmhPZqjW266D0uvGV+HHFQ5FzOyMXO1Ri95VIzXm/1Gi+5/A4H+AsGGkUWb0NT1d18yq1aGvgtDFB+eRf1wmNMzRHCMqC985DdWZXQnbzh5E30yX0bK28M5y4OtQ5Iq7YSlcOOEbG0JIzcK/l640XIWl4Ny6K1WUaCSTs1Xs6etRSNFjRmijNVQbNfy4wqGImYHZqz1qUbtq5E3/j6cC9wLRv9fdPqKgWLE69FUQIv03/Y7RO4dgWu0FqJBem1n+qOpE1ac6yUdh94LW4hUG9bKULSY/wYFRQ5EzNDS+SScgdXKgWS3gJoUjLytLhKYWoJFl9lXsfTkjtC8bqs0WflzhUMSMwB+qPWrxtGqkdv+Pu4LrBfJ2XTNiperQN0GI0EKoVx5fwsqm/yFdnIzyVnVsv/wfqs8oi3LpKn1ezuPvGdLJlcINnVyzphc3f8PIoUjJqvGe3IZ79gJYt1WaCfpKAJAjk/Ti88VkiHo2VFsl/LjCoYjphas96gqqahQlsjRh7ra9UshQu//HlcBVoOB6gRz7iOyBKKh1zQKzSnXIaRA6c+8Uqk4rie8iRBfDStrYLpKJQruubkfDuT8gYbTEWNF0M6JHiCHvkX5w/cdIgahtE+nkGlRCNVIoUnPVeDsKSxSI7IFpyx5g007g+UvpXi9RWllSG73p6OeldkO11cOPKxyKmFq42qM/qhr1E85hc4VQ8eAxEDIEEEY4VjsGTWdVI7V4s0aYN/MREbNXh5wGIbL32k4htFQXl8AYXWUiyqStIO/xzLyjM9B2WQukipUWs+ouQcqYzuMxDTenQDR3hVRt+O0XeUcQfBWKtFw13i5wI3STGsLXlIfYDxMSeMzoDtUlFW7DeUKNhmp/DT+ucChiSnC1x3eC6v/RY4Sa0ipQUJTMRxSYmatDLoMQOX33BNosbY4Td46iRZ7W6FS0J2JFii3vdc/lRxcxbGt/LDw+B8VSlsS4apMRN7Jw9g0GTcLVb7T0QqJA5O4wcr1CkdarxlOIoXDhqhHa3SH2gStLWoYlpQ3VHH7cw6GIOeJqjzF40v+j9gg1LVeK97SPyIzVoSCDEKHdvTd0xfg9oxEmZBg0zv0jfshUC7kT55ef4dy2y5ux+Pg8zD06Xfy8e/E+YpBSik4AVCEKqqHaFa1CkbdD44OipBFayRD7oKgdloJqqObw4x0ORf6Hqz3Govb8P55UjdSsAgXHkz4is1WHgg1CdifvHMO/e8eKt7hIrIixkTVhDiSLngLRwn8nBqZHrx/hyqOLOHLzIJ6/fYYIYSKiQY5maJWvHZJE9+6d6m5DtStqhKLXb6TgQfdTJw0GsqjTOvWZJzNCBzfEXi1Kw1Js4crh2g1pAT+65xxPCEm7hRBEOPyow8yh6Njtwzh37wzuPL+F1+9fI2yoMIgZKbZ4yzx7glyIGDaS/Ez/wtUe49Jr/p/gqkZ0rJ00T5sqUFA86SPSojr04t1zMWNcfngRD1/dx/uPH4SsEQHxoyZEujgZkDme8lTodhCye/L6MdadW4Xd17bj5O1jCHh6DU/fPEEIhET0CNGRNEYKZBH+IYWSF0O5dJWFA5x6w4mUNlS74kkooqHxFIJo1BYFDjXn61FjRujAQ+x9wTEs0fd4pxB8aOQE/dzoVUbNg/R9c6wk6d3gbVVmCEWbLqzFouNzsfHCGjx780ze6hzdRq+SsYZ4IWVlXO0xNl/M/+MMVY0WrRb+HcK/5Ynw1nnxUv1eI3cp7SNSozr08dNHzDo8BctPLcKOK1vkrc7RIK8yaSqgRpa6wnGklLw1aIqDkBF40lDtijuhSMnQeCXUnhFay1Xs3RHUbS97Q/XT50DjGkCa5HJ1ycvbcOxbFIqWbYA4ktEIoYiCz4htg3Dwxj7EiBhTnJ+sYLKiyBQvKxJFS4xIYSPj7Ye3uPviNs7dO42913dh/bnVOHf/NOJFiY/2hbqiRV4v3uQGwdUe8/Ck/0dLgXuB1O418pSSPiJPq0P/7BmFMTuH4sHL+8gQNzNKCyEnb5ICSBs7A+JGiYswocLi5bsXuPHkOk7cOYadV7Zi9ZllYoEmX5KC6FjkNxRPJfwQg2DKIGTnaUO1K85C0XXhZE0vNjWHxtPJnkKBFjNCq72KfXCU9vy401B9/+GXUMRhyTu+DkVdVrXBtIMTkCpWGvxSoKOiCs+Wixvxz97RwuMGscI8tOI4pIqZRt5rfFztMR+t1/9SSkkvkB4j1Fyhc6c7fURKqkNn7p5El9VtxeW4SqUpL7bYFEnh3u0Sm/CLFnUft2s4rj2+gpZ522BguRHy3m+ZOgjZ0UnY04ZqVxasAjoPAB48kobF06J13jZa6zUjNIUENVaxd0WNhmdvZ6jmsKScnqHo3os7aLagrngQ61C4G3qWEI7mHqK+RJqJPnTIMJhYY1awV3e+wNUec9N7/S93eDsizBdVI3f7iIKrDlFFuOWi+ggXOhwGlRsl3ubyBAWi/234DX/tHoHCyYtjcq25X81faGeJIGTnbUO1XeCh8Z70FAXmSSO0tzxdxd4ZLUZ7aT1DNYcl17QMRY9ePUCNGeXFaTcm1Zwj9vp469z9M/hpUQOcunsCCxuudvvev1a42mN+Run/CUzLEWF6VY3c6SNyVR2iENRgbjVkS5AT/9aYiRQxUkk7vLDo+Bz8vKQJcibKg0UN1yJyuCjyHomlghDxtqHaPjSeKin1qsgbHQQORXTyoJOIq1CkRiO0N7wZYq/XUHd649P3SO0Zqt3BYUn9UFRrZgVsubQR8+qvRInUwhWDSqjKVFP4u289vYF1LXe6nJRVbVztsRaj9f840nJeIGf0qBoF10fkWB2q2/AEyk4qLK5mQRc83zmp3nhq7dkVaDSvhjg59Ky6S+WtEssFITulDdWeDI0PKhSp3QjtDSVD7PUKP86oMUO1FvwpLHkbigb+1wcjtw/CmKqTUDeb+on27L3TKDOxAHIlzofFjYR/pAa42mNNRuv/caRlFUgprapGQfUR2atDJ+IUQ/iYZ7Dhx91IHiOltFNF1DfUedUv+O37P9CxSA95q4WDkJ07DdVqDI23hyIa4kgLpL58DTQVvtaEPz37+7Tgaoi9L8OPM0pnqDYCK4YlpaHo1N3jKPZPLrEhemTl8fJW9c05Mg3tl/+IP8uPRvM8P8tbPcPVHuszYv+PI72rQEqpXTVy1Uf09+6R6LOhG8ZXn4HqmbWrHLRe2hQLj83GnrYnPw++sHwQsqOTvLOGarWGxjs2Qlf8XppQkK5A3Ll9pif7EPsWdYXvhXBwN0r4ccbbhmqjcQxLYmCyByX6cBKWEttDkv3Dh2HJnVDUanEjcdjq4V8vInYkbf+RNWaUw4UH53Cso3CFowBXe/yDUft/HBmpCqSUGlUjxz6iyJE/4FHeJCiYIi9m1fv6tpXabjy9juwjU6Fe9iYYXWWCuM1vgpCdY0N1uHDAjn1CGPJyaHxQjdBKe4q0ZK/8zFsJ3HsApEgCjO2r3rQAWtC6odpozBCWnIWiQkWuof3u1GhXqAt6lRwgP1M7NDlj3dlVgrwFx9Ue/2Pk/h9HRq8CKeVt1eiXyf9iQUBbLG0sTZWhtZ7rOmHC3rE41fk64kSO539BiJy/ApQR3iDUR9S8NjCwm2czVCtthPZFKHJ124u+ppZD7NXmy4ZqozFSWLKHotknh+NFst+wu80JpI6lzxS3+cdlQtLvUmBegxXi51zt8V9G7v9xZOYqkFJKqkZVp5USJ0Dc0ko4wOuARrR+Pz4PBpUbKU7W6ndByHFoPL1ZPJmhWo1GaC1DkZKeHzWH2OvBqA3VRqNGWKIepnix5b8wGHSr6tGrh/iv1X55i/b6bOiKf/aMQbZLz7D/cFiu9vgho/f/OLJaFUgpV1WjXDme4nDS2OhUpAe6f/+H/GztFfwrC5JFT4nZ9Zb6VxByNTTe3Rmq6eRBJ2G1Z4RWIxR50/Cs1ir2ejJjQ7XRqBmWkg2MgTrZGuHP8qPkv117a84uR+N5NdE+1TbUKZSfqz1+wgz9P478qQqkFJ1zZ+7YjH+vlMOCBqt0nSy1w4qfsP7cKpzpcpMWw7S+V69ttrptbbbclWy2Y6fljU4sWWez5ShvsxWqbrOt3SJvFHz4YLP9MdJmC53CZvu5p8128468QwPb9tpsHf5nsyUrYLOlLGyzdepns+08IO8MhLZ37i89L2l+6c9t3SPvVIj+T+Ua2Wyl6tts12/KG01g4DibLWJam615F5vtSoC8kanm3gOb7fBJm23FRpvt7xk222+DbbaGHWy24rVtttRFbbYIaWy2sJkCbLH6hLFN2T9e/lP6uPjgnPh15x4V/mHM8k6es9na9rbZwgjH4RqtbLZNO+UdBjZEeEsgic3Wd7S8gX2Djhv0Pr75VN8D+N+7R4pf99GrBzbLV4Q8GRrv2FCdLhUwfZHzRmitOasU0VXvpWvSdqWVH3cYYRV7pfytodpotp89iurz8mBa7QXigqp6ef72OVIMiomWWQahVrpO8lZmNXQrZdEa6XhYo4K03BEN9DAymjxwxCTg3TugY0vt1viygpmn+mPGqb643fsVQocMLW/V3uITc9FqcWOxr9HSQcibofFL1gFte0uTEVYqKQUDTxqq1UC3vcZNB9ZukeYnihQBKFtU+Pc1VaenKDBfr2LvKW6o9o1DN/aj7KRCmFNvmbg4ol5oxfpE/aMg3MW+CHu1u7yVWcWLl9KcbDQ1SdQo0lINIUPKOw3s6XNpxGL0aMbtVzKStyl740OKIbjb5428RR8rTi9G8wV1se3nQ9a9Ndb+D5stST6bbeMOeYOb9h+12So3l241TZwr3W6h2y50+4Vuw+glqNteSm6feerIKek2YYP2Ntubt/JGk1i3Vbq9mb2czbZ4rbyRqerRE5vt+Bmbbc0Wm63v1BNiiXnpiQXyXn08fPlA/Lrj9/B9B6ug19Wgv6RjXoFqNtuMxfIOE6C2ixJ1pWPPviPyRhaskdsHie/jV+9eylv0MefIdPHrXnl0yWaCfK0MDYkvWU+avXL/SvfnyKHG0FY9gELVpdtgV3ZJo8FoEj+qBm2eK1UaUhWRGnW1QJWfLgOkr1G/HT4viXF1NzCy95fbX0XySp/Tv3HKUOGK6RPQoL305zr3l/4eb9HU5/uWS7fk8lYWrvpPyDtMoExRYMcioF1TaZRGhSbAnsPyThYsakY9cRZYuxWYKLzuew8HmnUBSjcAMpQQrsyF10bMrML3Vfj+0iCDwwelNVtoojI92b9e/CgJxUdmXjTVQbs+QNwc0rGGBrTsWmLsJmhHNCIsa1npGE3HHm6Idl88+f1742mA+KiXm/LXixclvrVuja3aDDQXDtj2VePd4TgjdMu6Uo9JgrjyTieoN8fZDNWe8ma0V2BaDck32xD7wKw2Q7U3KOQ4jgoLvBwIjRyjYa72UWHiaDFaCkT+veN2x367bCNTIH/Swvjnh+nyFu3Zl9rY0foo0sWRFy1iprJppzT6y+jz/7jCI8I8Q98v+xxDG08cxJFYBTChxixUy1RLfob2ms6vjdN3T2Bfu9PWCULBrRrvTFAzQgfHsaGaTq5Z3Vik1U7N8OOK2qHIjEPsHflDQ7VWIccdPy5qgL3Xd+F4xyvyFu21XtIEWy9twukuN+QtzCzMNP+PK/4+L5ASl69L09TYww89UuC1z/s16GpMVM9SG8Mr/S3/Ce2lGRwPZdNVwpgqE80fhDxZNV7pjNCuUKql6hD9XW2bSH+Xq4ZqPcKPK2qFIiWr2BuVWRuq1Qo5Wv3MFh6fIwaThQ3XoFjKkvJW7bz7+A6p/4yLaplrYVRl4YzEDM9s8/+4wlWgoDlWe+yTJz5/IYUex1mlY8WQ/4CA1incIlzUnOsqHNh0QPMHNZj7A6bWmo+KGaqZOwgpHRqvxozQzlBfkrMZqn0ZflxRIxSZcYh9YEaaodroIccdHz99RLohCVAk5feYXHOuvFU7k/b9hd/W/qrb2kTMc2ZZ/8sd9ioQjailYz0LvtpDj9Rz6sruQ8KxeP46HIhYGSMrj0eDHM3kPdppMLcajt06jBOdromfmzYIKRkaTycTOumpPSN0YPRi6NgXOHMRCBtGmt7fCOHHFW9CkVmH2Aem9QzVVgg57hq8pS+GbeuP5U02oUAyh2XpVfb+43vkHpMOKWKkwpLGwouXGZLZ+38ccRVI4km1xxWaG4oCMn1v6bWxO1IRvHj/EHvbnpKfoY3/Lm5A7VkV0bNEP3QoLDUTmzIIdfifcAJfJ/UDBTUqTGkjtKcCV35oYTmaUCtOLHUaqvXgSSg6eloKQ+lTSdUhM/fceNJQ7U8hxx1vP7xB3rEZxFFca1vskLeq7/d1nfDv3rFiCCqc3KQlSQuzQv+PI3+uAnlb7Qns3XvptUEBiIoF9Nqg1wjZeH4N6s2pinaFuqBXyQHSRg0UH58br96/xL62wglMZqogRLeg6MQbPpwUguIKQcMVbxqh3eHObS9vGqp9SUkoov+7mVaxD4pjQ3XnH4E6QiiibRxy3Lf81CK0WFgPLfK0xiAN1h2bd3Qm2i5rjp/zd0DfMkL6ZoZglf4fR/5WBVKz2hMYnbvtAYiq7vT6qFxK3umg2+p2mHJgvGYjyDqu+BkzD0/GzLpLUDZtRXmriYKQu0Pj1WqEdsaTnh96cbnbUG1E7oYiMw2xD66Sc+0m8Oq19P9NIgQZCtMcctzXf3MvjN4xGJ2L9kS34n3krd5bdWapOOS1eMpSWNBwtbyV+ZKV+n8c+UMVSO1qjzPU/0OvD6oSNhfO3fT6oONpUCpPLYE913Zgdr1lKK3iTPV9N/bA2F3D0LVYL3QRPhyZIgi5MzReq0ZotRqeXTVUm0lwocgIQ+zVvF1lpIZqs+m6ui2mHvgXzfP8jD/LC29eL00VrhK7CleLeRLnx9wGKxA1XDR5D/MFK/X/OLJqFUjLao8zgft/6DXiblvKg5f3UGd2ZbGZWa3m6Y4rf8bMQ5PxU7526F92mLz1C0MHIXeGxtPJjU5WajZCaznaixI4zcZ77rL0bzXjBIXEVShKnli6fanFEHtf9eRo3VBtVQM298aoHX8iR8Lc+L3kABT2YHTX9SfXMOi/3lh0fC7KpauE8T/MQMSwkeS9TG9W6/9xZKUqkB7VnsCC6v9R6snrx2i1pDE2X1iHutka4bfv/4f4UZXPIL/l4kb029wTJ24fdVoJsjNsEApuaLzajdBahh9n6OuoOUO1LzkLRXfuA//tdn+IvWPIEQOO/HutQ44SPEO1citOLUafjd1w48l1cWX6hsLVXYnUwZfW6MA19+gMTNw3Tvy8h3Ag/LXIb+Lvmb6s2P/jyOxVIL2rPYG52//jiSFb+2Go8BEqZCj8mLcN6gihKEPc4BtR159fjVmHJmPduVVIHiMl/ld6iHgh5YpXQejqo8u48ew6nr15hhDCr+8ifIfE3yVDomiJ5Wd4Jrih8Wo1Qusdfpwxa0O1K46hiPpsHj4BGtcAOjQzdshxFzVPU4AdO00K3/Qzs9oM1WqjyQ/H7ByCSfv+xsNXDxA7clwUSFoYGeNlQcKoiREpbCThOW9x9/kdnLt/BvsD9uC88Ejq52iKNgU6IVWsNOLnTD+B+3/oCt/dtRvNwoxVIF9Ue5zxpP/HE2fvn8Zfu4aLAyUILaeTJ3EBpImdHnGEY0nYUGHx4t0Lce2wk3eOYdfVbXj06iHiRo6HFnlbo32hbggRzG0ixUFo/rFZWHd2BXYKX4zKV87QP6BwiuIon64qKmWoJm91T1BD49VohDZC+AnMzA3VQVVyaAqBm8Lv6TYZvQ7jxZaG2mfLaMyQowRdRdLPy2wzVPva0pMLsOnCWuy9tgvXn1yVt34RM2Is5EiUB9+nLIXKGasLBzrhxcF0ZdX+H0dmqQL5utrjjDf9P964/fwWVpxaJM5AffjGfjx+/Uje80Wy6CmQL2lBlEpdXjx+uMvtIDRauKIbv2c0Hry8jyTfJUPRlCWQLUFO8Qt/FyE66K959PohLj+8iMM39wv/2I24/+KeWJaioa5Nc/8k/03OBTU03ttGaCOGH2eM1lCt1u2q+HGASs2BQ8eB0KGl24H0/aefg7Mh+WbCDdWee/H2Oe48v43X718hjHBVFztybCEICWmZ+YSV+38cGbkKZJRqT2Bq9v+ohZqqH7x6gPcf3ol9g7SKfKSwkeW9ygQbhLZf/k+cwOzMvVMom7YSmuVuheKp3LsBuPL0Ekze/49YqqKVqQeVH4mMcb+tnbkaGk8nWzrJeNIIbZbw44weDdW+6MmxD7GnmajfvJV+PkENyTcTbqhmZmT1/h9HRqsCGbHaE5iW/T9GEmQQmrT/b/y2pgNSxkwtNhuVSVtB3qMM3U7rta4zXrx7jr+rTUPVTF/O7M6GxnvaCG3m8OMM/T88aaj2RchxV+Ah9u7OU2QW3FDNzMAf+n8cGaEK5FjtoUcaEGSEao8zevX/GIXLIEQTD9EERLQy67iqU8SGRm8EPLmG1kubYu+1nRhXbQoqp23gdGi80kZoq4UfZxwbqts1A76LYsyQ4y5Xq9hbJRRxQzUzKn/o/3HkqyqQGao9zviq/8fXnAYh+zT2tbLWx1/Vpspbvffh03vUnV0FWy9tQvTTa1AoacnPQ+OVNEJbNfwEVcm5fhO4EiDdq40sZNJ0KaU5e4wWcpQIahV7K4Qi6mkbMI4bqpnv+Uv/jyM9q0BmqvYEZsT+H719E4TO3z+LYuNzokDSIljUaK28VT3P3j5DmQlF8ODZCxzufBhnz0YVA1BwjdBmDz9q3K5KLHxQFcVIDdXecmcVe7OHIm6oZr7gT/0/jrSuApm12hOYv/T/uOObINRgTjVsv/Iftrc+Io4I0wLdHqs09Xuk/NQKR+aMEU8OdFIP3AhtlvCjVsihR3ftEd6AtEDo2UvS986sM1QTJavYmzkUcUM104O/9f840qIKZOZqjzP+1v/jjq+CkH0ZfFrVmYa8a6nX+i7icPxFtQ6haIYvjUBGCz/2kENhxh5stA45StD3yZOGaqOhn7XSVezNGoq4oZppwd/6fxypVQWySrXHGX/t/3HHV0Go/pxq4syMxzpelrdo5+6LO8g0LAma5voJVeKN9Un4MXrIUcIqM1R7uoq92UIRN1Qztfhj/48jb6pAVqv2BMb9P+75HIRuPruBbCNSoFPRnuhevI+4U2vUkL3oyAqE23hf9fBjpZDjLrqaoZMrBSKzzVDtiHpqqDrk6Sr2ZgpF3FDNPOGv/T+OlFaBrFztCYz7f5T5HIRoiXpaqv6/VgeQOV5WcafW1p5diUbzqmNhozUolqKkvDV4/hhylKA3AfUPzVkuXSGZsaHaPsT+4ydpegX6+XnCLKGIG6qZO/y5/8eRO1WgoKo99uBj9rUdA+P+H898DkLtlrfEpgvrcLpzgLhDD8/ePkXKQbHRrXhvdC4qXfpzyFEPvfmpQmTmhuqghtgrZYZQxA3VzBl/7v9x5KoK5Krak094/9hvcVH4iRlder7VcP+Pdz4HoXKTCiNCmIhY0lg4S+gox8i0eHEzD0IfmckhRyN08qdAFCG8FIjM1lDtzhB7pYweirihmhF/7/9x5FgFolUI/K3aExj3/6jncxDKPjIVCiQrgr+qTRF36KXSlO/x8HFIDC++iUOOxszcUK1kiL1SRg1F3FDtn7j/52sHjwvfgx4QzhPSJLLnr/hXtScw7v9RX0j5EW8/vEGEMBHkz/RDXzNK1DfiD5RDkLZaNwKu7JJmpc4mnOjb9ZFOtmZAIzf2LpOCSt7KwKET8g4VFMkLjOwtfW+mDJX6khq0B1IVATr3l6Z08AVqdB/zPyEErpUW4E1eUAizM+WdzHKo/4fek3GFYyG9vinw71rifyGIenuov7H9H0CS/EDuStLM+sULAHWE9/5q4cLg6SlgvfBe6NtJWoXAH0IQ9f807igdBx48AjYKQWjNdA5BavhcEco2MiUKJSuGcdUmizv0UnlqCekKqMJm8TZYFO+WNGNuMnNDtadD7JUyWqWIG6qtyZ/7f1z19mRMA9y5L93OHyWEw1KF5T/gh7j/R3ufg1DpiQURNVxUTZbVCEquURnw4Eo2vN8zRxwpRPe/7f1A1Bsk9gjJv6dHDkvqcmyopgkZm9aSdxict0PslTJSKOKGamvwx/4fd0Zybdju+bxAVsH9P/r6HITaLG2GbZc340Sna+IOPbx89xLJBkYXR4x1K95bnEwx8Agx++/t2zksacOMDdVqDbFXyiihiBuqzcef+n/cGcnlOG+P0nmBrIj7f3zjcxCaeuBfdF3dVlxjLH2cjOJOrW08vxb15lTBvPorUCK1e3V+tcISfUSNLP+l7DMzNlSrOcReKV+HIm6oNgd/mP/Hm3l79Fwp3oh4/h/f+hyErj2+glyj06L793+gU5Ee4k6tdVzRCrMPzUPcfY9QrXRIVC0DZFchg3FY8g5dkVH/UD/hBGuWGaq1GGKvlC9DkX2G6h37gV7tgdYN5R3Mp6za/6O02uOKv1eBuP/HGD4HIVJrZgVceXwJB9qdlbdo5/HrR8g4NDFqZ2uI0lHHY+k64QSyAYgXWzh5CIFIrVDkCoel4JmtoVrLIfZK+SoUcUO1MVit/0eLWZr9tQrk2P8TJrT0+qAP5jtfBaHVZ5ajyfyaGFx+NJrl+Vneqo3+m37H6J1DsPHHPciWIKe8FVi7VTiB6ByKXOGwJKEDn1kaqulnpnQVe635IhRxQ7X+rNL/o1a1xxV/rQJx/49xfRWECFWFjtw6iB2tjyJeFOEMroGjtw6h1IT8qJe9CUZXmSBv/ZaRQpEr/hSW6GRuloZqvYbYK6V3KOKGau2Zvf9HzzW5/LEKxP0/xvdNEDpx5yi+H58HZdJWxKy6S+St6vnw6T3KTSqCm08DsL31YcSKFEfeEzQzhCJXrBaWzNJQrfcQe6UcQ1HIkNJrWotQxA3V2jBj/4/W1R5X/LEKxP0/5vFNECLTDk5Al1Vt0DhXSwyrKFxSqqjxvJpYc3Y5ZtRZjHLpKslblTFzKHLFbGGJDmhmaKim75kvhtgrpUco4oZqdZip/0fPao8r/lQF4v4fc3IahMiQrf0wVPionbUBxqmw/tijVw/RemlTbL6wDkMrjkOTXD/Ke7xjxVDkihHDklkaqn05xF4prUMRN1QrZ4b+H19Ve1zxpyoQ9/+Ym8sgRMbsHIp+m3oiS/zs6FtmCAomKyrvUWb1mWXotb4LAp5cE3uCqDdIC/4UilzxVVgyQ0O1EYbYK6VlKOKG6uAZuf/HCNUeV/ylCsT9P9YQZBAia8+uRM91HcUQUzNLPTTL3Qq5EueT9wZt66VNmLT/b6w/t0oMUwPLjUDeJAXlvdriUOSaY1gKuPXl92qEJTppG7mh2khD7JXSKhRxQ/W3jNb/Y7Rqjyv+UgXi/h9rCTYIkXcf32Lo1gEYv3c03rx/jYxxs6BYyhLIliAXksVIge/CR4dN+EW3vy4/vIBDNw9gy6UNwu8vIlak2Ghd4Fe0LShcGvgIhyLlvA1LR04C81cKJ+ncwB+/Gquhmv5vRhtir5TaochXDdX3XtzBa+GYEiZUWMSKGAthQ4eT9/iGUfp/gqr2UOChAGS0QQpWrwJx/491uRWE7J6/fYb5x2Zh7ZkV2Hl1Gz7ZPsp7vhYhTEQUSVEcFdJVRZ1sjRAiRAh5j+9xKFJPcGGJttEJhcSMLh24UyTRtmdJCaMOsVdKzVCkdUP1pgtrhY912Hd9N87eO4UPn4QXkYNk0VMgZ6I8woVWKVTJWF08lmjN1/0/Zqn2uGL1KhD3/1ifoiDk6KMQgk7dOY4bTwPw7M1TMexQZShJ9GS6rVXmLQ5F2qOwRFe0g/8BNu4Avi8ApE7+JSwFV1nSOiwZfYi9UmqFIrUbqsfvGY3JB/7B1UeXET50BBRIVlisLCeIlgiRwkTCu4/vcPfFHZy/fwb7A3bj9rNbCBc6vDiook3BTprMaear/h8zVntcsXIViPt//IfHQchqOBRpjw76zhqqtexZcgf93WYYYq+UGqHI24bq/y6uR58N3XD23mkUTVECDXI0Q+WMPyBkiFDyM5zbfXU75h2dgbnCBwWi3iUH4Md86pxp9ez/MXu1xxUrV4G4/8f/cBBygkORtujkrLShWo+wZKYh9kp5G4o8aageteNPDNjcG2lipcPvpQagXFrl84aduXsSA//rg3XnVqJ65joYX32GvEc5Pfp/rFTtccWKVSDu//FvHISCwaFIO2rPUK1GWDp8EugzwlxD7JXyNBQpaaj+Y0N3/LV7BOpka4iRlf9F6JDC2cUL43YNx/82/oZiKUtiTr3lCBMqjLwnaFr2/1i12uOKFatA3P/DCAchBTgUqY8OqjQhIwWiNo2lk6uWM1S7G5ZoHbAokaSDfRIhKOnVs6Q3T0JRcA3VI7YPxKD//sDP+TuI84+pZcGx2fhlaVNxRnqamT4oWvT/+EO1xxWrVYG4/4c54iDkIQ5F6jLSDNUUlujf07YPcOaC9HOld0ngsOSrBm+tKA1Fzhqq159fjQZzqqF+9iYYFcSCyp6advBfdFnVFh0Kd0fPEn3lrV+o1f/jb9UeV6xWBeL+H+YMByEVcChSj6uGal9xNcT+w0cpEIlVJYeAFFxYokcxMBk8LCkJRY4N1TczZUD0yBGxpdVBea/6Oq/6BdMPTsSa5tuQO3F+cZu3/T/+XO1xxSpVIO7/YcHhIKQyDkXqoJOw0oZqrXg6xN4qYcndUFRt6J/Y+bI3FjRYheKpSstb1ffi3XPkGZ0e6WNnR+5XK8WTnJL+H1fVHgo99qUp/KHa44pVqkDc/8PcxUFIQxyKvKd2Q7WnKLBoMcTebGEpqFCUcVhi5EiYBzPrBt2/o4a/d48Uh+Vnf7QFXWsVDLL/h6s97rNCFYj7f5hSHIR0wqHIc3o3VAfFF0PsjRqWHEPRx3gL8DpzA8ypvxylUpeTn6Gdl+9eIPXgeGIv0tCK4+StXO3xlBWqQNz/wzzFQcgHOBR5xigN1UZcxd7XYanGxKY49XgTznQNkLdo78dFDbDryk70THOVqz1eMHMViPt/mBo4CPkYhyLl6ITn64ZqM65ir2VYyjEqNXIlyosJNYSzkk5mHpqMjit/Rvrrx1EsYzqu9ihk5ioQ9/8wNXEQMhAORcr4uqGahtnbV7GnMGSFPgRPwlLc+E+wOnwc9Co5AO0KdZH/Ju0dvXUIpSbkx9Ra81ExQzV5K3OHWatA3P/DtMBByKA4FLnP1w3VVlnF3l2Bw9LRG6cx5X42TKgxE9UyCWcnnTx89QDphiTAgLLDVVuHzOrMWgXi/h+mpZDyIzOYcsWACX8C9w4Dg3+T5kcp0xDIIoQhWgLiyCn5iQytGwFXdkm3qbKXA9r1kZaD0EunlsCaaUCv4cLv+8sbLSx0KGmtscJ5gLpVgNpVX4rbI4WNIj7qJXJY6f7cq/fS12dBoypQ1rJAsfzAjkXGD0HU/zNmKpCxpFT5rS68t+8Kx8O+nTgEMXVxEDIBDkXBox4dOkBe3gm8fgMkLygtFKqXMkWBfculmajpZ0PVEn9hX0fswyfhzKWj9/LXC+XlOmZWR1WUkvWAFRul16jRb4VR/0934XgXNwewbqvwPqbbz+u4CZpph4OQyXAoChpVKiYOBjbPBXYdBFIVAaYukHdqjK5S10wHsmUA8lYRfr9F3mFxMSLGEh/vv7grPurF/vViRYwtPrJvmakKRP0/jTtKFzEPHgEbZ0vvJ26CZlrjIGRiHIpcozljVk0VTgQ9gXHCwbRQdenqUg/0s6CPai2BIePljRaWKFpiRAgTEecfnJO36OPc/bPiY/IYKcVH9oWZqkDU/1OqvvR+SZoQuLnfOoMPmDlwELIIDkXOUZP5odVAvSpAsy5AzZ+BY8JJQmu01MO+FcCCVcLvO0jNqVaWI2FuHAjYI3+mj/0Bu8XHbAlzio9MYoYqEPf/MCPhIGRBHIq+5YuGarpFtncZECoUkLcycPC4vMOCiqUsgSM3D+Lqo8vyFu1tPL9G+LolET50BHmLfzNDFYj7f5gRcRCyOA5FX/iioTp0aGDacKBhdalviFZqt6JKGYT/oGDesZnio9a2Xd6Ms/dOo7L8df2d0atA3P/DjIznEfJTPE+R/jNUe7qKvVk0W1BHDChHOlxE1PDR5K3aqDenCo7ePISTna8jZAj/vZ4z+rxAPP8PMwMOQszvQ5GeM1TTrMxarGJvBIdu7EfZSYXQIk9rDCo/St6qvsUn5qHV4kboW2YIfs7fQd7qf4w6OzSv/8XMhoMQ+4o/hyKaoXrAOKBATuHEovEM1b5YxV4PfTZ0w9+7R2JizdmomlH9abavPb6C0hMKIFXstFjdTKdhgAZj1CoQr//FzIqDEHPJH0MRnVxohXtasqNNYykQxYkp71SZEVexV0OlKcXF6tDixuuQP2lheav3nr99hlozK+DEnWNY32InMsbzv/HVRqwC8fpfzOw4CDG3+FsooqtbCkRz5NE3v/0i71CZGVexD86NpwGoMaMsbj+7hcm15qJk6rLyHs/deHodLRc2wMEbezG9ziKUT1dZ3uMfjFgF4v4fZhUchJhi/hSK9GiotuIq9lcfX0az+XVw4s5R9CzRDx0KC/9BD608vQTd13TA49cPMaHGbFRMX1Xe4x+MVAXi/h9mRRyEmFf8JRTp0VBttVXsX79/hU4rW2Ph8TnImiAH2hbsjCoZa8h7g3cgYC/+2TNKDELZE+bC0IrjkDV+Dnmv9RmpCsT9P8zKOAgx1fhDKNK6odqKQ+yXnlyAEdsH4ey9U0gaPTkqpK+KQsmKIlO8rIgfNaH8LODJ68c4e/809l7bifXnVou3wSKFjYwOhbsKH93lZ/kHo1SBuP+H+QMOQkwTVg5FWjdUW3WIPQWiRcfnYsP51fIWaeX4SGEj4t2Hd3jz4Y28FciRKA+qZqyBhjmaI3K4KPJW6zNKFYj7f5g/4SDENGfVUKR1Q7VVh9i/ef8aB27sxbn7Z3D3+W28ev8KYUOFRaxIsZEiRmohBOVC3Mjx5Wf7D19Xgbj/h/krDkJMV1YMRVo2VFt1iD37wtdVIO7/Yf6OgxDzGauFIq0aqq04xJ5JfFkF4v4fxiQchJghWCkUadFQbcUh9v7Ml1Ug7v9h7GschJjhWCEUadVQbbUh9v7IF1Ug7v9hzDUOQszQzB6KtGiotvoq9lbliyoQ9/8wFjwOQsw0zByK1G6otvIq9lakdxWI+38Ycx8HIWZKZg1FajdUW3WIvVXoXQXi/h/GlOMgxEzPjKFIzYZq+xD7vp2EYPSzvJH5nF5VIO7/Ycw7HISYpZgpFKnZUM1D7I1DryoQ9/8wpo6Q8iNjllCuGDDhT+DeYWDwb8Dte0CZhkAWIQz1GQEcOSU/0QAorFAV5/JO4PUbIHlBYNBf8k6FsmUA9i4DQoUC8lYGDh6XdzBdURUoa1mgWH5gxyJtQhD1/zTuKL1eHjwCNgpBaM10DkGMeYorQswvmKFSpFZDNQ+x158eVSDu/2FMGxyEmN8xeihSo6Gahti37A7UrCCdmJl2tOwF4v4fxrTHQYj5NSOHIm8bqnmIvba0rAJx/w9j+uEeIebXjNxT1LqR1D+ULqUQzMoB7foAdx/IO91At02od4T6h/JWEX6/Rd7BvKZVLxD3/zCmP64IMeaE0SpF3s5QzUPs1aFVFYj7fxjzHQ5CjAXDSKHIm4ZqHmLvHbV7gbj/hzFj4CDEmAJGCUWeNlTzKvbKqV0F4v4fxoyFgxBjHjJCKPK0oZqH2LtHzSoQr//FmDFxEGJMBb4MRVSpoOoQBSKaobqncMKOG0veGQQeYu+amlUg7v9hzNg4CDGmMl+FIk8aqnmI/bfUqAJx/w9j5sFBiDEN+SIU7TksBSIlDdW8ir06VSAKoxR+KARx/w9j5sBBiDGd6B2KlDZU+/MQe2+rQNz/w5h5cRBizAf0DEVKGqr9bYi9t1Ug7v9hzPw4CDHmY3qEIiUN1f4yxN7TKhD3/zBmLRyEGDMQrUORkoZqqw6x97QKxP0/jFkTByHGDErLUORuQ7XVhth7UgXi/h/GrI2DEGMmoFUocqeh2gpD7D2pAnH/D2P+gYMQYyajRShyp6HarEPslVSBuP+HMf/DQYgxE1MzFLnTUK3GEPtDN/bjQMAenLt/Bref38Lr968QNlRYxIoUGyljpkaOhLlRNGVJhAoRSv4TnlFSBeL+H8b8FwchxixCrVAUXEO1J0Psbz+7hakH/8XCY7Nx4+l1cVucyHERP2pCRAwTCe8/vcO953dx/clVcV/40BFQLXMtNMrZArkS5RW3KeFuFYj7fxhjHIQYsyA1QlFQDdVKhtgP3tIXw7cPAB1qyqWthAoZqqFw8mJIEDWR/Iwvnr99hr3XdmLduVVYIISmNx9eo0aWuuhZoj8SRUssP8s1d6tA3P/DGLPjIMSYxXkbioJqqKYh9tQ7RE3UgYfYn7pzHL+uaIUjtw6iVtb6aFuwC9LFySDvDR6For93j8Kwbf0RJVwUDKv4N37IXFve+63gqkDc/8MYc4aDEGN+xJtQ5Kqh2tkQ+y2XNqLp/NoIFzo8hlf6CxXTV5N2eODMvVPotrot9lzbiT6lBqFNwU7yHklwVSDu/2GMBYWDEGN+ypNQ5Kqh2nGI/S+/7kSr1WWQOlY6TKk1T2yAVkPrJU2w8Pgc9C87DD/lE5KYIKgqEPf/MMbcwUGIMfY5FNFtsPhxgg9Frhqq2w+8jwUv8iNxvLBY2ng9ErrR16NEy0X1sezkQgwovAwLJpd3WgXi/h/GmBIchBhjX1ESigI3VO8N1RBLTszHmubbkTtxPvlZ6vnw6QNKjM+HM9ee4pdEJ9CnbXhxO/f/MMY8xUGIMeaSu6GI9vecsQr3U/+AniX6oUPhbvIe9e26ug1Vp5VC24Kd0Sj9QO7/YYx5hYMQY8wtzkJRtbJANnkgWJWpJXHr2U0caH9G2qChdstbYt7RmXg4JwBNq8Tm/h/GmMc4CDHGFAscigqUPIDFLwuif9nh+Cmfk7HrKjtx+yi+/zcPOuQbiJ5lO8tbGWNMOQ5CjDGvUCjqv6knzoceinNdbyNGxJjyHm1VmFwUH2wfsb7FTnkLY4wpF1J+ZIwxj5QrBkRKugWFkhfTLQSREqnL4PCN/Xj06oG8hTHGlOMgxBjzyifbJxy9dUhcLFVPOeU1yI7fPio+MsaYJzgIMca8cv3xVXEdMbUmTnSX/evZF2pljDFPcBBijHnlyZvH4qOet8VIjIixxMfHrx+Jj4wx5gkOQowxr9CtMRIyhL6Hk5AhQki/4fEejDEvcBBijHklavho4uPT10/ER73Yv17kcFHFR8YY8wQHIcaYVxLJ64ldfXxFfNTL1ceXxcfE3yURHxljzBMchBhjXgkfOgLSxE6PY7cPyVv0ceSW9PUyxOUppRljnuMgxBjzWsFkRbDt8n/4+OmjvEV72y5tQupY6T5XpBhjzBMchBhjXiuXthLevH+NJSfnyVu0deNpADZdWIfy6SrLWxhjzDMchBhjXiueqjTSxcmIaQcmyFu0NeXAP+JjrawNxEfGGPMUByHGmCposdX9AXsw7+gMeYs2Lj28gLE7h6FOtoZIEzudvJUxxjzDi64yxlRTeWoJnLt/BltaHUCCqAnlreqqP6cqtlzaiD1tTiJp9OTyVsYY8wxXhBhjqulfdpi4CGq7Zc3lLerqt6knNpxfgwFlR3AIYoypgoMQY0w1WeJnx1/VpoojyBrPqymuQaaWIVv7YczOofgxX1s0zf2TvJUxxrzDt8YYY6qbeuBfdF3dFnkS58fwSv8gXZwM8h7lPnz6gC6r2mDW4SlonKslhlX8S97DGGPe4yDEGNPEilOL0WHFj3jx9gV6luyH9oW6ynvct+zkQgze+j9cfHAeXYv1QhfhgzHG1MRBiDGmmeuPr+KPjd2x8vQSxI0SH/WzN0GlDD8gU7ys8jO+dfPZDaw7uwLzjs7E0VuHxNttv5foJw7RZ4wxtXEQYoxpbuuljZi8/x+sO7dK/JxCUYY4mZAwWiJEDBMJ7z6+w70Xd3D+wVmx+kOyJcgp3gprkKOZ+DljjGmBgxBjTDc3n97A5ovrcCBgD87eO43bz27i9YdXCBMyLGJHjoNUMdMge8LcKJaypFgJYowxrXEQYowxxpjf4uHzjDHGGPNbHIQYY4wx5rc4CDHGGGPMb3EQYowxxpifAv4PZiDhYNH2CdEAAAAASUVORK5CYII=;" vertex="1" parent="1">
          <mxGeometry x="64.93" y="192.63" width="440" height="259.58" as="geometry" />
        </mxCell>
        <mxCell id="0zCmAKwxc2upnWdYMAy7-33" value="&lt;div style=&quot;text-align: center;&quot;&gt;&lt;span style=&quot;background-color: initial;&quot;&gt;Dynamic neural network&lt;/span&gt;&lt;/div&gt;" style="shape=umlFrame;whiteSpace=wrap;html=1;width=155;height=20;boundedLbl=1;verticalAlign=middle;align=left;spacingLeft=5;" vertex="1" parent="1">
          <mxGeometry x="19.999999999999993" y="170" width="534.93" height="350" as="geometry" />
        </mxCell>
        <mxCell id="0zCmAKwxc2upnWdYMAy7-10" value="&lt;span style=&quot;text-align: center;&quot;&gt;Configuration file&lt;/span&gt;" style="shape=umlFrame;whiteSpace=wrap;html=1;width=115;height=20;boundedLbl=1;verticalAlign=middle;align=left;spacingLeft=5;" vertex="1" parent="1">
          <mxGeometry x="309.86" y="30" width="195.07" height="77.5" as="geometry" />
        </mxCell>
        <mxCell id="0zCmAKwxc2upnWdYMAy7-5" value="&lt;span style=&quot;text-align: center;&quot;&gt;Hardware structure - Static&lt;/span&gt;" style="shape=umlFrame;whiteSpace=wrap;html=1;width=165;height=20;boundedLbl=1;verticalAlign=middle;align=left;spacingLeft=5;fillColor=#60a917;fontColor=#ffffff;strokeColor=#2D7600;" vertex="1" parent="1">
          <mxGeometry x="94.93" y="30" width="184.93" height="77.5" as="geometry" />
        </mxCell>
        <mxCell id="0zCmAKwxc2upnWdYMAy7-6" value="&lt;span style=&quot;text-align: center;&quot;&gt;Structure&lt;/span&gt;" style="shape=umlFrame;whiteSpace=wrap;html=1;width=65;height=20;boundedLbl=1;verticalAlign=middle;align=left;spacingLeft=5;fillColor=#0050ef;fontColor=#ffffff;strokeColor=#001DBC;" vertex="1" parent="1">
          <mxGeometry x="330.86" y="60" width="75.07" height="40" as="geometry" />
        </mxCell>
        <mxCell id="0zCmAKwxc2upnWdYMAy7-7" value="" style="endArrow=classic;html=1;rounded=0;" edge="1" parent="1" source="0zCmAKwxc2upnWdYMAy7-5" target="0zCmAKwxc2upnWdYMAy7-8">
          <mxGeometry width="50" height="50" relative="1" as="geometry">
            <mxPoint x="189.86" y="223.5" as="sourcePoint" />
            <mxPoint x="209.86" y="163.5" as="targetPoint" />
          </mxGeometry>
        </mxCell>
        <mxCell id="0zCmAKwxc2upnWdYMAy7-53" style="rounded=0;orthogonalLoop=1;jettySize=auto;html=1;entryX=0.512;entryY=0;entryDx=0;entryDy=0;entryPerimeter=0;" edge="1" parent="1" source="0zCmAKwxc2upnWdYMAy7-8" target="0zCmAKwxc2upnWdYMAy7-33">
          <mxGeometry relative="1" as="geometry">
            <mxPoint x="364.93" y="140" as="targetPoint" />
          </mxGeometry>
        </mxCell>
        <mxCell id="0zCmAKwxc2upnWdYMAy7-8" value="" style="ellipse;html=1;" vertex="1" parent="1">
          <mxGeometry x="278.86" y="120" width="30" height="30" as="geometry" />
        </mxCell>
        <mxCell id="0zCmAKwxc2upnWdYMAy7-9" value="" style="endArrow=classic;html=1;rounded=0;" edge="1" parent="1" source="0zCmAKwxc2upnWdYMAy7-10" target="0zCmAKwxc2upnWdYMAy7-8">
          <mxGeometry width="50" height="50" relative="1" as="geometry">
            <mxPoint x="133.86" y="53.5" as="sourcePoint" />
            <mxPoint x="269.86" y="163.5" as="targetPoint" />
          </mxGeometry>
        </mxCell>
        <mxCell id="0zCmAKwxc2upnWdYMAy7-15" value="&lt;span style=&quot;text-align: center;&quot;&gt;Values&lt;/span&gt;" style="shape=umlFrame;whiteSpace=wrap;html=1;width=65;height=20;boundedLbl=1;verticalAlign=middle;align=left;spacingLeft=5;fillColor=#e51400;fontColor=#ffffff;strokeColor=#B20000;" vertex="1" parent="1">
          <mxGeometry x="415.93" y="60" width="75.07" height="40" as="geometry" />
        </mxCell>
        <mxCell id="0zCmAKwxc2upnWdYMAy7-36" value="" style="curved=1;endArrow=classic;html=1;rounded=0;startArrow=none;exitX=1;exitY=0;exitDx=0;exitDy=0;entryX=0.989;entryY=0.096;entryDx=0;entryDy=0;entryPerimeter=0;" edge="1" parent="1" source="0zCmAKwxc2upnWdYMAy7-37" target="0zCmAKwxc2upnWdYMAy7-37">
          <mxGeometry width="50" height="50" relative="1" as="geometry">
            <mxPoint x="329.86" y="192.21000000000004" as="sourcePoint" />
            <mxPoint x="329.86" y="232.21000000000004" as="targetPoint" />
            <Array as="points">
              <mxPoint x="409.86" y="182.21000000000004" />
              <mxPoint x="409.86" y="212.21000000000004" />
            </Array>
          </mxGeometry>
        </mxCell>
        <mxCell id="0zCmAKwxc2upnWdYMAy7-37" value="" style="rounded=0;whiteSpace=wrap;html=1;fillColor=none;" vertex="1" parent="1">
          <mxGeometry x="223.86" y="180" width="140" height="290" as="geometry" />
        </mxCell>
        <mxCell id="0zCmAKwxc2upnWdYMAy7-38" value="0" style="text;html=1;strokeColor=none;fillColor=none;align=center;verticalAlign=middle;whiteSpace=wrap;rounded=0;fontColor=#FF0000;" vertex="1" parent="1">
          <mxGeometry x="233.86" y="402.21000000000004" width="60" height="30" as="geometry" />
        </mxCell>
        <mxCell id="0zCmAKwxc2upnWdYMAy7-39" value="1" style="text;html=1;strokeColor=none;fillColor=none;align=center;verticalAlign=middle;whiteSpace=wrap;rounded=0;" vertex="1" parent="1">
          <mxGeometry x="233.86" y="180" width="60" height="30" as="geometry" />
        </mxCell>
        <mxCell id="0zCmAKwxc2upnWdYMAy7-40" value="2" style="text;html=1;strokeColor=none;fillColor=none;align=center;verticalAlign=middle;whiteSpace=wrap;rounded=0;" vertex="1" parent="1">
          <mxGeometry x="233.86" y="222.21000000000004" width="60" height="30" as="geometry" />
        </mxCell>
        <mxCell id="0zCmAKwxc2upnWdYMAy7-41" value="3" style="text;html=1;strokeColor=none;fillColor=none;align=center;verticalAlign=middle;whiteSpace=wrap;rounded=0;fontColor=#FF0000;" vertex="1" parent="1">
          <mxGeometry x="233.86" y="268.21000000000004" width="60" height="30" as="geometry" />
        </mxCell>
        <mxCell id="0zCmAKwxc2upnWdYMAy7-42" value="4" style="text;html=1;strokeColor=none;fillColor=none;align=center;verticalAlign=middle;whiteSpace=wrap;rounded=0;fontColor=#FF0000;" vertex="1" parent="1">
          <mxGeometry x="233.86" y="312.21000000000004" width="60" height="30" as="geometry" />
        </mxCell>
        <mxCell id="0zCmAKwxc2upnWdYMAy7-43" value="0" style="text;html=1;strokeColor=none;fillColor=none;align=center;verticalAlign=middle;whiteSpace=wrap;rounded=0;fontColor=#FF0000;" vertex="1" parent="1">
          <mxGeometry x="233.86" y="354.21000000000004" width="60" height="30" as="geometry" />
        </mxCell>
        <mxCell id="0zCmAKwxc2upnWdYMAy7-44" value="" style="rounded=1;whiteSpace=wrap;html=1;fillColor=none;strokeColor=#66B2FF;" vertex="1" parent="1">
          <mxGeometry x="233.86" y="354.21000000000004" width="16" height="88" as="geometry" />
        </mxCell>
        <mxCell id="0zCmAKwxc2upnWdYMAy7-45" value="Weight = 0" style="text;html=1;strokeColor=none;fillColor=none;align=center;verticalAlign=middle;whiteSpace=wrap;rounded=0;" vertex="1" parent="1">
          <mxGeometry x="129.86" y="452.21000000000004" width="80" height="30" as="geometry" />
        </mxCell>
        <mxCell id="0zCmAKwxc2upnWdYMAy7-46" value="" style="endArrow=classic;html=1;rounded=0;exitX=0.5;exitY=0;exitDx=0;exitDy=0;entryX=0;entryY=0.5;entryDx=0;entryDy=0;" edge="1" parent="1" source="0zCmAKwxc2upnWdYMAy7-45" target="0zCmAKwxc2upnWdYMAy7-44">
          <mxGeometry width="50" height="50" relative="1" as="geometry">
            <mxPoint x="159.86" y="612.21" as="sourcePoint" />
            <mxPoint x="209.86" y="562.21" as="targetPoint" />
          </mxGeometry>
        </mxCell>
        <mxCell id="0zCmAKwxc2upnWdYMAy7-47" value="" style="rounded=1;whiteSpace=wrap;html=1;fillColor=none;strokeColor=#66B2FF;" vertex="1" parent="1">
          <mxGeometry x="329.86" y="354.21000000000004" width="16" height="88" as="geometry" />
        </mxCell>
        <mxCell id="0zCmAKwxc2upnWdYMAy7-48" value="Contribution is 0" style="text;html=1;strokeColor=none;fillColor=none;align=center;verticalAlign=middle;whiteSpace=wrap;rounded=0;" vertex="1" parent="1">
          <mxGeometry x="369.86" y="452.21000000000004" width="100" height="30" as="geometry" />
        </mxCell>
        <mxCell id="0zCmAKwxc2upnWdYMAy7-49" value="" style="endArrow=classic;html=1;rounded=0;exitX=0.5;exitY=0;exitDx=0;exitDy=0;entryX=1;entryY=0.5;entryDx=0;entryDy=0;" edge="1" parent="1" source="0zCmAKwxc2upnWdYMAy7-48" target="0zCmAKwxc2upnWdYMAy7-47">
          <mxGeometry width="50" height="50" relative="1" as="geometry">
            <mxPoint x="399.86" y="612.21" as="sourcePoint" />
            <mxPoint x="473.86000000000007" y="398.21000000000004" as="targetPoint" />
          </mxGeometry>
        </mxCell>
        <mxCell id="0zCmAKwxc2upnWdYMAy7-50" value="N Number of Layer times" style="text;html=1;strokeColor=none;fillColor=none;align=center;verticalAlign=middle;whiteSpace=wrap;rounded=0;" vertex="1" parent="1">
          <mxGeometry x="409.86" y="180" width="140" height="30" as="geometry" />
        </mxCell>
        <mxCell id="0zCmAKwxc2upnWdYMAy7-54" value="" style="shape=image;verticalLabelPosition=bottom;labelBackgroundColor=default;verticalAlign=top;aspect=fixed;imageAspect=0;image=data:image/png,iVBORw0KGgoAAAANSUhEUgAAAr0AAAAoCAYAAADzEEIBAAAAAXNSR0IArs4c6QAAAARnQU1BAACxjwv8YQUAAAAJcEhZcwAADsMAAA7DAcdvqGQAABKQSURBVHhe7Z0FlFRVGMcvdnd3d3d3dyei2MUxsLHAPuDKsYNjsYKomBggiLEGgo2KXWAgBoodz/f79t05d58zO2+Wmdnd4f87553dFzPz3pt3//ere6dDFOOEEEIIIYSoYaZK/gohhBBCCFGzyOgVQgghhBA1j4xeIYQQQghR88joFUIIIYQQNY+MXiGEEEIIUfPI6BVCCCGEEDWPjF4hhBBCCFHzyOgVOYYMGeJ22WUXt/3227s+ffq4f/75J9kjhBCV5eeff3bdu3c3/Tn22GPdxIkTkz1CCJGfv//+2/Xv39+tsMIKbrXVVnMPPviga+7nJ/TjFCIHRu7UU09tD9E111zjOnXq5Oaee+5krxBCVAa058orr3Q77rijW3XVVZOtQgjRPJ9++qn75JNP3KabbmqOMjrStWvXgraLIr0iBwYvjBs3zv31119upplmsnUh2jrPP/+8u+uuu5K1wrz33nvuqquuStZEW2Hs2LHWSa2yyirJFiGEKM4SSyzhttxySzfNNNO4WWed1c0777xuqqkKm7YlR3rpXLCsDz744GRL26a9nW85+fPPP93AgQPd559/nmxpZJ555nGbb765W3rppV2HDh2Src59/PHH7uyzz3Z//PGHO+2009zGG2/cZL8QkwuGKSLFs5WPcD/P7wUXXODWXnttt88++yRH5CdrO8fofeyxx9wpp5ySbKksxa63lpk0aZKrr6//X5nCoosuavqz8MILJ1sav7+XX37Zffnll2YAb7HFFu6II46wjkyIEEyWN9980916661uzJgxtg2tWGuttVyXLl2svbV3fvvtN9erVy93/PHHT5HZ1g8++MDdf//9yVojBOUoX0BLZ5555mRrU0aPHu0++ugjt9tuuxW0XdptpHfkyJHu3nvvTdZEPkgZ0snvtNNO7qeffnJ77723O/LII61jueKKK1xdXZ2VMniWWmopN2DAAHfffffZ/f3iiy+SPUJUn+mmm86MU1Leov2B80zWyOtPx44dbcG4Pf/8893dd9/dpPYOw+Wyyy5z/fr1s0jNG2+8kewRohH6q+uvv976qbPOOssNHjzYluHDh1ug5uqrrzZjqSVVmwR9rrvuumStMvz+++/W73733XfJFpGP8ePHu7nmmsutvvrq9he7BUeZIMIJJ5xgdk0I3/eoUaPsO9x5552bDda1W6MXgWQRzYN3NOecc7oZZpjB/uI1zjLLLO7kk0+2gSP5OhaiKwsssIAZx0K0JvPNN19Br160fXBcvP7QebGgQeeee6451j4LhU4ttthipj10WCuttJIZCEKEEJD55ZdfXI8ePdyCCy6YbG2E9Ysuusg1NDS4V155JdmaHUr6Km1TYJxx/qI4lFdSrsBfNGO22WZza6yxhjv11FNd3759c98VjhCODxlsIrzFskOq6W3j/Pvvv+bVPPDAAxadDRdSAC2FB2PZZZd1H374oa3TGGn0wEP09ddfu4UWWsjWhRBTJpXSHzowjOGvvvrK1hdffHH37bffmvawjBgxws0xxxy2Twj44Ycf3KuvvuoOO+ywgoYNDjJlMUR7yTSI1oPsznPPPWeR+VA3mGlhcpwLyqJ4FrzzQOAO5zprWctkG70IIgNDXn/9dXf00UdbKpJpr9LTRhCWpm7rmWeesYeSaWlYqMvxDyd1LHhq+UL/fAafxcUeddRRlspglB7vcd55501WVIBawDPOOMPtscce9n4nnniiCTCQiiNlkk6XUDpAKu7tt9+2dc79xhtvtGvnHnTu3NnuScgtt9xin3XxxRfbMQ899FCyJz+fffaZ1TIeeOCB7sUXX0y2lg+ugcgLYPD27NnTzmvfffe1tAK1d0K0Jl43PLTDl156yR1yyCE5rbnpppvydnAYZUx95Y9DWxDiNG+99ZZpCm2f46699lprz56sGtcSeD2iTe3errvuaufAeSLo7EN70KA0GIvdunXLCf/333/vLr/8cns954eGheVJaCr6Qw0k+rv//vtbKrA5Kqk/XBuGix8sS5RuzTXXNA1modSKaK8QHtohBg/Zn+ZYcsklLVvg7Yi0hnjYxj5sB2wINIA2Qhvif2wN3/ZpS+ecc461+2222cadfvrpFhjy+PdK418P9PdEIjmOPpbPaUlE2kPbv+GGG9wBBxxg77XnnnuaNgJ6eOGFF9qsBmmwWbBd6P+hmP5x3hyDzrKfmZ2aA6f1jjvusEGpHPvjjz8me8oDjjgRYO/4oGlbb721fecsRIO57wWJxackGhoaovr6+mQtiuIPjDp27BgNGDAgih8e28bfWICjkSNH2jrwmi5dukTDhw+P4pO2bfFNj/r27RvFwm7bfv3116hHjx7RhAkTbH9IXV2dfZYnfR6FKHYcn8n+8ePHJ1uiKBb7KPZI7DomTZoUxQ0iio3gZG8j48aNi+LOyY6JDUY7v2HDhuWuLW5wUdwwovihs3WIjeIo9nqisWPHJlsKM3HixCj2aKM+ffrY+7cEfz/jBtvkvnKucUcade3atcn5CVFpaGu0yUKk96fXn3766ahXr145rYFRo0ZZWwnb+TvvvBPFnVQUG7nJliiKHc4oFndr2570cbTfQYMGRbHw59pyVo3LR7HrjY3V6M477zSd8cQdYRR3MPb5o0ePjmLnPncuniFDhkQDBw60/3kt1xB3TLYOtGvaN+8PtP1LLrkk6t+/f5N7V4hy6A+fGeoPeuQ1KTb0o5NOOil3fkIUg7bEc58F2sy7775r/xdqg2wLNYN2Tt8YwrbOnTtb3x22G9pa7FDnnt/0e3nS79mcjROS5TjuBVrhtYHz69mzZ65PHzp0aNSvXz/7P4Q2PWLECPs/i/7Fzn3Uu3dv06IsDB48OIqNY9PbluLvZ3hf/b3k/b3N2BLKUt5AGmqHHXZw008/va3zF2/Iex0ews8UI/siYwYr4J3gMYVeUzWZccYZbcQ301x4iHASgcBTJF2y4oor/q/2lfTbhhtuaNdKyoU6WabN8NdGBJUoCZFtD9FjSgbCUcuFwLNi9PNee+1VtEYlC3huL7zwgouNBitpwLNlYFstjHQV7QuyNEQV8i1kbwpB5OXZZ5+1qITXGmB2hw022CBZa4xykI4nekpEwEMKnQiLjwrzlxrB4447Lncc7RftIiIcalJWjSsVUvxErcO6ZSZZJ4pD+yfiSe19eC6cN4M20B+gnm2TTTZpMt2XnzECbfIQ+eY+hfeuEOXWH7SUVCdL3NG62AC3ASlcvxBZyTqNZmw0ljXCuN9++zVpN7S19dZbr0n7qjbbbrutzVjhbQ7Oj3PyZUdka2PDP5cNAjSULNHKK6+cWf+4l7GtmCnzgp1BaQmZbvS2HHA92C1oHlFn7JjDDz88d92lUhajF2GmRisEI9DXiHrWX3/9/50oYk8Bsi8naA1ij8EeDmpPSP2RLmCqLzoboKPgRvs6FB4iUgQ8cED6MXz4PPPPP7+NQvRpBBrs8ssvb/8XgzIIBnrQ2PIZByylpEZiL9B+ce3222+3c919992bGApCVAum4sFQy7cwqXghSMdjJKW1BkKDD7GmTYeOrIfBUmgTcBxtNp0upfPAyA01KavGtQTSgbR1DH4MYBacZfQGp5wfa2C/B6d19tlnt8GmHIMRma9D4lrREQ+dULHUsKfc+oMBQmfIdHHoDoEGxhQIUQq+Ly0GdkW5HCraX773IhhWrESo0mBfMAsK5Zk49AwQZRsw+AvbakwyrRtgpGPwcn+y6h9ams++yQcGMtpBqWQ+zWAptRyVKch69+5tTjjaQU13GCQolTYxkI3OiZvVGmDAMn0ORi91bvz8LtOhUHvjofPAYGX6HcDgJRrsGwKCztRK6S+X+j88Jt8x8kVlnXMPz4vGRlSMuXPzLaV4Upwrr6Head111zWPjGiOEO0FhDJLR8ZxtDUGNzQHxw0bNixXSxsu1OuWw6AtxjfffOPOPPNM0wmm5WFUcn19vUWvPUR00RwiM0RcMIh9xgwjgMgNkZX0NVCDGOoqRjJGdBbKrT/MCY7O0qEyhRlRG6+nQmSBPpd+uhgEq2hXfrxKpcAwDGtfqwk6cM8997jbbrvNDMFLL73UpnClVteDPlDrSlaa49EPAnQ+2JVV/7B9sjrLZIXQjoMOOiivZrCQYZ522mmTVxSHDBvGPPN9874Y+QQKWkqrG718GXgmeCQIMn/5cqoFXzppQNJ4GKQ8KERPwtQI0+nwoBBip5MhRbfZZpslexunVbr55pvzRq4YlMJ0PUA5R3O/FBJCJ8GXzAAPJmrPt3CvSoEOh8gNqV8Gi/jpX4RoD9AOCznHYQSI49CQfFEh9IYFaJdkPJ544om8bTc0PCsF0U/mrqVzInoL6A9pSA/GKm2XCC/RGXRhmWWWsX1cK8Ynjnq+a2Cyfg/HZonWQCX0B4eFDpWME3rLOU9O5yWmLMgMkNUI20Y+GLxFW/JGL6U+lQiqYbeQzYVS28LkwlR/RJnJjHF9vgTJD97zkKEiYotuhBkiyKp/2CxZdYPsFxFwPo+Sq3y6wUAztKgUeA2g69xzytxaSlWNXh5Y3+F4uDl8UeGcexMmTEj+awTPjRB3JeC902lLHhLONYT0IZEJzgMvheivhw7itddeS9bKA3V9eGBEfx599FG7J+XoIHhfGii/ekSaY9CgQckeIdo2tDlGUaejK2gKkUMPokgnl+4AgHbtHT3aAYZda5ZWEW1J1ykya0I48wIdDh0I10jEl7o9jGAgms31ZomAlUKl9IcAA+/FedPxEYUSIgsYa5RI8jym7QgPbRtniqCON6ww7tK/Sgr8elcWMC7JxITgUDNjgy+r4jOY1z7taPO5pOXLDbqBBoT19rTPdHsikMivmKF7lCOFY6oqoX/cc8qznnrqKYvqYmiX4/q5TgJ21PRutdVW7sknn2zxeVfV6MU6pzbWP7A8oExZRrrL12iQen/88cdz0V6+SDwRvpwQHjI6tkIPf1ZImTQ0NOQEHSOYtIGPpHiIUnAs03YQ9Q09FdZpQNTA+fPhL9vCgWylwPtTMsGvzjDlCSUgGNs8sH7JNw1LMXgdgkCEiQ6In3MM6/6EaKvgGBPVpN6eOjOgndHGwmeY9BpGIqm/MGtEeyRb47WGv0QemKYozHjwP9mQYhGlckCWKNQNHGs69XS9Kw6qH9DhxxJ4SP+RjgzrC7k/6G3Wjj1NpfSHjprBy6QoiTI9/PDDVbnPov3DM4fhQ+lCXV1dE0OU9sPzz48ukU0g2ugh2vn+++9boMdDbSsOZAg2BXqRdu5ok9gEXktoW9gkOKs4h4BBjj0SBstwXslqeAcVaFcsk1sWgT2CQU3QEDgnMreUXKTBPkFTKIMK7ZpK6R/axf3CAWBQHHoc6gbTSLbk+tF+yjOZOpJBfHyG181SqKrRS90Z86cRQfBzSfJ3o402So5oHImN9+TnnjvmmGPsJqaFnsgrntV2221nv86C51MIP59vuPg5cvlsbiaGIHPQUTBNujFfDQteJnUudEAhPDzUz2HQ0wHx/sxtiWe1zjrrJEeVDt4NacChQ4fal5teMFqLQaPA8woHnTB7BA2Be4yDQQ1hOaI4QlQSBPPQQw+1dkHNPe2MZ5tnl0EcIYgiDrTXETpLDEBmfuB9PJQpoUGMYOY4tAlDj84sXwfSEvLNVuHbI+2bOXbRDT4b45VzTNfeojHLLbeciX66rplIL1EVBqny3lwPGoYDPzmDxcqhP1wn35HvnAH9JM3aqVMn0+HmIndChPBM4ozRb5Pa9+2J9sPPVzNIKiw9BNoLdkT37t3tWPp6HEhqS0MWWWQRK3HkvZj5xRt9fmYUBlDxemZlwuDGePPBLwxbXkNfyjHYEo888ogN2AzrV8lwYLNwPhwT9stpaDN+Pl+/oA2cF/YJWsgANrajX+hDaEt5MMjRMmyR0ACHSukfAUIcE4IRad3g9wyyjC3AbkM7Peg2uo/DTNkocwGHg/Sy0iE+iaqoDRMy+2l02ivU//KwE6kQQohqQdQEhxwjFMNXCFF5CNIx4wiGdnuFyC3ZGk0R2EirD2RrL5DaCEc+CiFEtfA1ieFYAiGEKEZ6tqkpHRm9GWESesL9fuSjEEJUA8o3KHtgEIpPpwohRDGI8lI+hHaIRmT0FoFBJhR7U9pADVpYDyiEEJWEtCQ1gJSGVWMKNSFE+4eBYt26dbPBotTsoh+ikarV9AohhBBCCNFaKNIrhBBCCCFqHhm9QgghhBCi5pHRK4QQQgghah4ZvUIIIYQQouaR0SuEEEIIIWoeGb1CCCGEEKLmkdErhBBCCCFqHhm9QgghhBCi5pHRK4QQQgghah4ZvUIIIYQQouaR0SuEEEIIIWoc5/4D0EoIpqD+oakAAAAASUVORK5CYII=;" vertex="1" parent="1">
          <mxGeometry x="39.860000000000014" y="482.21000000000004" width="490" height="27.96" as="geometry" />
        </mxCell>
        <mxCell id="0zCmAKwxc2upnWdYMAy7-55" value="&lt;font color=&quot;#ff0000&quot;&gt;0.4&lt;/font&gt;" style="text;html=1;align=center;verticalAlign=middle;resizable=0;points=[];autosize=1;strokeColor=none;fillColor=none;" vertex="1" parent="1">
          <mxGeometry x="145.93" y="227.21000000000004" width="30" height="20" as="geometry" />
        </mxCell>
        <mxCell id="0zCmAKwxc2upnWdYMAy7-56" value="&lt;font color=&quot;#ff0000&quot;&gt;0.8&lt;/font&gt;" style="text;html=1;align=center;verticalAlign=middle;resizable=0;points=[];autosize=1;strokeColor=none;fillColor=none;" vertex="1" parent="1">
          <mxGeometry x="154.86" y="248.21000000000004" width="30" height="20" as="geometry" />
        </mxCell>
        <mxCell id="0zCmAKwxc2upnWdYMAy7-58" value="&lt;font color=&quot;#ff0000&quot;&gt;0.0&lt;/font&gt;" style="text;html=1;align=center;verticalAlign=middle;resizable=0;points=[];autosize=1;strokeColor=none;fillColor=none;" vertex="1" parent="1">
          <mxGeometry x="150" y="400" width="30" height="20" as="geometry" />
        </mxCell>
        <mxCell id="0zCmAKwxc2upnWdYMAy7-59" value="1" style="text;html=1;strokeColor=none;fillColor=none;align=center;verticalAlign=middle;whiteSpace=wrap;rounded=0;fontColor=#FF0000;" vertex="1" parent="1">
          <mxGeometry x="233.86" y="180" width="60" height="30" as="geometry" />
        </mxCell>
        <mxCell id="0zCmAKwxc2upnWdYMAy7-60" value="2" style="text;html=1;strokeColor=none;fillColor=none;align=center;verticalAlign=middle;whiteSpace=wrap;rounded=0;fontColor=#FF0000;" vertex="1" parent="1">
          <mxGeometry x="233.86" y="222.21000000000004" width="60" height="30" as="geometry" />
        </mxCell>
      </root>
    </mxGraphModel>
  </diagram>
</mxfile>
